<mxfile host="Electron" modified="2024-06-15T03:41:38.227Z" agent="Mozilla/5.0 (Windows NT 10.0; Win64; x64) AppleWebKit/537.36 (KHTML, like Gecko) draw.io/24.2.5 Chrome/120.0.6099.109 Electron/28.1.0 Safari/537.36" etag="9k1lfAENwx5lOdk1imRV" version="24.2.5" type="device">
  <diagram name="PÃ¡gina-1" id="OOAdQ0dDglDI3H7h6THi">
    <mxGraphModel dx="3434" dy="1535" grid="1" gridSize="10" guides="1" tooltips="1" connect="1" arrows="1" fold="1" page="1" pageScale="1" pageWidth="827" pageHeight="1169" math="0" shadow="0">
      <root>
        <mxCell id="0" />
        <mxCell id="1" parent="0" />
        <mxCell id="y3AjJPNpV2lvp0vPa8tg-117" value="" style="edgeStyle=orthogonalEdgeStyle;rounded=0;orthogonalLoop=1;jettySize=auto;html=1;" parent="1" source="y3AjJPNpV2lvp0vPa8tg-111" target="y3AjJPNpV2lvp0vPa8tg-112" edge="1">
          <mxGeometry relative="1" as="geometry" />
        </mxCell>
        <mxCell id="y3AjJPNpV2lvp0vPa8tg-111" value="&lt;div&gt;Jugadas posibles&lt;/div&gt;" style="rounded=1;whiteSpace=wrap;html=1;" parent="1" vertex="1">
          <mxGeometry x="370" y="560" width="120" height="60" as="geometry" />
        </mxCell>
        <mxCell id="y3AjJPNpV2lvp0vPa8tg-136" style="edgeStyle=orthogonalEdgeStyle;rounded=0;orthogonalLoop=1;jettySize=auto;html=1;exitX=0.5;exitY=1;exitDx=0;exitDy=0;entryX=0.5;entryY=0;entryDx=0;entryDy=0;" parent="1" source="y3AjJPNpV2lvp0vPa8tg-112" target="y3AjJPNpV2lvp0vPa8tg-119" edge="1">
          <mxGeometry relative="1" as="geometry" />
        </mxCell>
        <mxCell id="y3AjJPNpV2lvp0vPa8tg-112" value="ficha del jugador actual" style="rounded=1;whiteSpace=wrap;html=1;arcSize=0;" parent="1" vertex="1">
          <mxGeometry x="370" y="650" width="120" height="30" as="geometry" />
        </mxCell>
        <mxCell id="y3AjJPNpV2lvp0vPa8tg-151" style="edgeStyle=orthogonalEdgeStyle;rounded=0;orthogonalLoop=1;jettySize=auto;html=1;exitX=0.5;exitY=1;exitDx=0;exitDy=0;entryX=0.5;entryY=0;entryDx=0;entryDy=0;" parent="1" source="y3AjJPNpV2lvp0vPa8tg-119" target="y3AjJPNpV2lvp0vPa8tg-120" edge="1">
          <mxGeometry relative="1" as="geometry" />
        </mxCell>
        <mxCell id="y3AjJPNpV2lvp0vPa8tg-119" value="revisar 1 a 1 celdas del tablero, buscando fichas iguales a la actual" style="rounded=0;whiteSpace=wrap;html=1;" parent="1" vertex="1">
          <mxGeometry x="370" y="710" width="120" height="60" as="geometry" />
        </mxCell>
        <mxCell id="y3AjJPNpV2lvp0vPa8tg-121" style="edgeStyle=orthogonalEdgeStyle;rounded=0;orthogonalLoop=1;jettySize=auto;html=1;exitX=0;exitY=0.5;exitDx=0;exitDy=0;entryX=0.5;entryY=0;entryDx=0;entryDy=0;" parent="1" source="y3AjJPNpV2lvp0vPa8tg-120" edge="1" target="y3AjJPNpV2lvp0vPa8tg-126">
          <mxGeometry relative="1" as="geometry">
            <mxPoint x="260" y="890" as="targetPoint" />
          </mxGeometry>
        </mxCell>
        <mxCell id="y3AjJPNpV2lvp0vPa8tg-122" style="edgeStyle=orthogonalEdgeStyle;rounded=0;orthogonalLoop=1;jettySize=auto;html=1;exitX=1;exitY=0.5;exitDx=0;exitDy=0;entryX=1;entryY=0.5;entryDx=0;entryDy=0;" parent="1" source="y3AjJPNpV2lvp0vPa8tg-120" target="y3AjJPNpV2lvp0vPa8tg-119" edge="1">
          <mxGeometry relative="1" as="geometry">
            <mxPoint x="500" y="740" as="targetPoint" />
            <Array as="points">
              <mxPoint x="560" y="830" />
              <mxPoint x="560" y="740" />
            </Array>
          </mxGeometry>
        </mxCell>
        <mxCell id="y3AjJPNpV2lvp0vPa8tg-120" value="ficha?" style="rhombus;whiteSpace=wrap;html=1;" parent="1" vertex="1">
          <mxGeometry x="390" y="790" width="80" height="80" as="geometry" />
        </mxCell>
        <mxCell id="y3AjJPNpV2lvp0vPa8tg-123" value="&lt;div&gt;SI&lt;/div&gt;" style="text;html=1;align=center;verticalAlign=middle;resizable=0;points=[];autosize=1;strokeColor=none;fillColor=none;" parent="1" vertex="1">
          <mxGeometry x="260" y="830" width="30" height="30" as="geometry" />
        </mxCell>
        <mxCell id="y3AjJPNpV2lvp0vPa8tg-124" value="NO" style="text;html=1;align=center;verticalAlign=middle;resizable=0;points=[];autosize=1;strokeColor=none;fillColor=none;" parent="1" vertex="1">
          <mxGeometry x="525" y="800" width="40" height="30" as="geometry" />
        </mxCell>
        <mxCell id="y3AjJPNpV2lvp0vPa8tg-128" style="edgeStyle=orthogonalEdgeStyle;rounded=0;orthogonalLoop=1;jettySize=auto;html=1;exitX=0.5;exitY=1;exitDx=0;exitDy=0;entryX=0.5;entryY=0;entryDx=0;entryDy=0;" parent="1" source="y3AjJPNpV2lvp0vPa8tg-126" target="y3AjJPNpV2lvp0vPa8tg-127" edge="1">
          <mxGeometry relative="1" as="geometry" />
        </mxCell>
        <mxCell id="y3AjJPNpV2lvp0vPa8tg-126" value="revisar casillas adyacentes en las 8 direcciones posibles" style="rounded=0;whiteSpace=wrap;html=1;" parent="1" vertex="1">
          <mxGeometry x="200" y="917.63" width="120" height="60" as="geometry" />
        </mxCell>
        <mxCell id="y3AjJPNpV2lvp0vPa8tg-132" style="edgeStyle=orthogonalEdgeStyle;rounded=0;orthogonalLoop=1;jettySize=auto;html=1;exitX=0.5;exitY=1;exitDx=0;exitDy=0;entryX=0.25;entryY=0;entryDx=0;entryDy=0;" parent="1" source="y3AjJPNpV2lvp0vPa8tg-127" target="y3AjJPNpV2lvp0vPa8tg-134" edge="1">
          <mxGeometry relative="1" as="geometry">
            <mxPoint x="320" y="1140" as="targetPoint" />
          </mxGeometry>
        </mxCell>
        <mxCell id="y3AjJPNpV2lvp0vPa8tg-141" style="edgeStyle=orthogonalEdgeStyle;rounded=0;orthogonalLoop=1;jettySize=auto;html=1;exitX=1;exitY=0.5;exitDx=0;exitDy=0;entryX=0;entryY=0.5;entryDx=0;entryDy=0;" parent="1" source="y3AjJPNpV2lvp0vPa8tg-127" target="y3AjJPNpV2lvp0vPa8tg-137" edge="1">
          <mxGeometry relative="1" as="geometry" />
        </mxCell>
        <mxCell id="y3AjJPNpV2lvp0vPa8tg-127" value="hay ficha distinta a la actual?" style="rhombus;whiteSpace=wrap;html=1;" parent="1" vertex="1">
          <mxGeometry x="137" y="1020.63" width="90" height="100" as="geometry" />
        </mxCell>
        <mxCell id="y3AjJPNpV2lvp0vPa8tg-133" value="&lt;div&gt;SI&lt;/div&gt;" style="text;html=1;align=center;verticalAlign=middle;resizable=0;points=[];autosize=1;strokeColor=none;fillColor=none;" parent="1" vertex="1">
          <mxGeometry x="156" y="1130.63" width="30" height="30" as="geometry" />
        </mxCell>
        <mxCell id="y3AjJPNpV2lvp0vPa8tg-142" style="edgeStyle=orthogonalEdgeStyle;rounded=0;orthogonalLoop=1;jettySize=auto;html=1;exitX=1;exitY=0.25;exitDx=0;exitDy=0;entryX=0.5;entryY=1;entryDx=0;entryDy=0;" parent="1" source="y3AjJPNpV2lvp0vPa8tg-134" target="y3AjJPNpV2lvp0vPa8tg-137" edge="1">
          <mxGeometry relative="1" as="geometry">
            <Array as="points">
              <mxPoint x="260" y="1205" />
              <mxPoint x="260" y="1130" />
              <mxPoint x="445" y="1130" />
            </Array>
            <mxPoint x="380" y="1140" as="targetPoint" />
          </mxGeometry>
        </mxCell>
        <mxCell id="y3AjJPNpV2lvp0vPa8tg-134" value="guardar coordenadas" style="rounded=0;whiteSpace=wrap;html=1;" parent="1" vertex="1">
          <mxGeometry x="93.00000000000003" y="1190" width="120" height="60" as="geometry" />
        </mxCell>
        <mxCell id="y3AjJPNpV2lvp0vPa8tg-138" style="edgeStyle=orthogonalEdgeStyle;rounded=0;orthogonalLoop=1;jettySize=auto;html=1;exitX=0.5;exitY=0;exitDx=0;exitDy=0;entryX=0.75;entryY=0;entryDx=0;entryDy=0;" parent="1" source="y3AjJPNpV2lvp0vPa8tg-137" target="y3AjJPNpV2lvp0vPa8tg-126" edge="1">
          <mxGeometry relative="1" as="geometry">
            <Array as="points">
              <mxPoint x="445" y="890" />
              <mxPoint x="290" y="890" />
            </Array>
          </mxGeometry>
        </mxCell>
        <mxCell id="y3AjJPNpV2lvp0vPa8tg-140" style="edgeStyle=orthogonalEdgeStyle;rounded=0;orthogonalLoop=1;jettySize=auto;html=1;exitX=1;exitY=0.5;exitDx=0;exitDy=0;entryX=0;entryY=0.5;entryDx=0;entryDy=0;" parent="1" source="y3AjJPNpV2lvp0vPa8tg-137" target="y3AjJPNpV2lvp0vPa8tg-146" edge="1">
          <mxGeometry relative="1" as="geometry">
            <mxPoint x="460" y="974.8095238095239" as="targetPoint" />
          </mxGeometry>
        </mxCell>
        <mxCell id="y3AjJPNpV2lvp0vPa8tg-137" value="&lt;p style=&quot;line-height: 106%;&quot;&gt;&lt;font style=&quot;font-size: 15px;&quot;&gt;Se revisaron todas las casillas adyacentes?&lt;/font&gt;&lt;/p&gt;" style="rhombus;whiteSpace=wrap;html=1;fontSize=16;spacing=4;" parent="1" vertex="1">
          <mxGeometry x="380" y="917.63" width="130" height="172.37" as="geometry" />
        </mxCell>
        <mxCell id="y3AjJPNpV2lvp0vPa8tg-144" value="NO" style="text;html=1;align=center;verticalAlign=middle;resizable=0;points=[];autosize=1;strokeColor=none;fillColor=none;" parent="1" vertex="1">
          <mxGeometry x="296.22" y="1000" width="40" height="30" as="geometry" />
        </mxCell>
        <mxCell id="y3AjJPNpV2lvp0vPa8tg-145" value="NO" style="text;html=1;align=center;verticalAlign=middle;resizable=0;points=[];autosize=1;strokeColor=none;fillColor=none;" parent="1" vertex="1">
          <mxGeometry x="409.22" y="887.63" width="40" height="30" as="geometry" />
        </mxCell>
        <mxCell id="y3AjJPNpV2lvp0vPa8tg-154" style="edgeStyle=orthogonalEdgeStyle;rounded=0;orthogonalLoop=1;jettySize=auto;html=1;exitX=0.5;exitY=0;exitDx=0;exitDy=0;entryX=0;entryY=0.5;entryDx=0;entryDy=0;" parent="1" source="y3AjJPNpV2lvp0vPa8tg-146" target="y3AjJPNpV2lvp0vPa8tg-153" edge="1">
          <mxGeometry relative="1" as="geometry" />
        </mxCell>
        <mxCell id="y3AjJPNpV2lvp0vPa8tg-161" style="edgeStyle=orthogonalEdgeStyle;rounded=0;orthogonalLoop=1;jettySize=auto;html=1;exitX=0.5;exitY=1;exitDx=0;exitDy=0;entryX=0.5;entryY=0;entryDx=0;entryDy=0;" parent="1" source="y3AjJPNpV2lvp0vPa8tg-146" target="y3AjJPNpV2lvp0vPa8tg-163" edge="1">
          <mxGeometry relative="1" as="geometry">
            <mxPoint x="499.2758620689656" y="1160" as="targetPoint" />
            <Array as="points">
              <mxPoint x="585" y="1070" />
              <mxPoint x="550" y="1070" />
            </Array>
          </mxGeometry>
        </mxCell>
        <mxCell id="y3AjJPNpV2lvp0vPa8tg-146" value="hay coorde-nadas?" style="rhombus;labelBackgroundColor=none;labelBorderColor=none;textShadow=0;whiteSpace=wrap;html=1;spacingRight=0;spacingLeft=0;" parent="1" vertex="1">
          <mxGeometry x="544.61" y="963.19" width="81.56" height="81.25" as="geometry" />
        </mxCell>
        <mxCell id="y3AjJPNpV2lvp0vPa8tg-149" value="NO" style="text;html=1;align=center;verticalAlign=middle;resizable=0;points=[];autosize=1;strokeColor=none;fillColor=none;" parent="1" vertex="1">
          <mxGeometry x="640" y="815" width="40" height="30" as="geometry" />
        </mxCell>
        <mxCell id="y3AjJPNpV2lvp0vPa8tg-150" value="SI" style="text;html=1;align=center;verticalAlign=middle;resizable=0;points=[];autosize=1;strokeColor=none;fillColor=none;" parent="1" vertex="1">
          <mxGeometry x="541" y="1048.44" width="30" height="30" as="geometry" />
        </mxCell>
        <mxCell id="y3AjJPNpV2lvp0vPa8tg-155" style="edgeStyle=orthogonalEdgeStyle;rounded=0;orthogonalLoop=1;jettySize=auto;html=1;exitX=0.5;exitY=0;exitDx=0;exitDy=0;entryX=1;entryY=0.25;entryDx=0;entryDy=0;" parent="1" source="y3AjJPNpV2lvp0vPa8tg-153" target="y3AjJPNpV2lvp0vPa8tg-119" edge="1">
          <mxGeometry relative="1" as="geometry" />
        </mxCell>
        <mxCell id="y3AjJPNpV2lvp0vPa8tg-156" style="edgeStyle=orthogonalEdgeStyle;rounded=0;orthogonalLoop=1;jettySize=auto;html=1;exitX=0.5;exitY=1;exitDx=0;exitDy=0;" parent="1" source="y3AjJPNpV2lvp0vPa8tg-153" target="y3AjJPNpV2lvp0vPa8tg-157" edge="1">
          <mxGeometry relative="1" as="geometry">
            <mxPoint x="649.8571428571429" y="1100" as="targetPoint" />
          </mxGeometry>
        </mxCell>
        <mxCell id="y3AjJPNpV2lvp0vPa8tg-153" value="se revisaron todas las casillas del tablero?" style="rhombus;whiteSpace=wrap;html=1;" parent="1" vertex="1">
          <mxGeometry x="610" y="845" width="80" height="80" as="geometry" />
        </mxCell>
        <mxCell id="yrJp2ZyePW3_RDwl9xaa-41" style="edgeStyle=orthogonalEdgeStyle;rounded=0;orthogonalLoop=1;jettySize=auto;html=1;exitX=0.5;exitY=0;exitDx=0;exitDy=0;entryX=1;entryY=0.5;entryDx=0;entryDy=0;fillColor=#f0a30a;strokeColor=#BD7000;" parent="1" source="yrJp2ZyePW3_RDwl9xaa-45" target="3wu-XQMlBxBPhiy1aAq9-14" edge="1">
          <mxGeometry relative="1" as="geometry" />
        </mxCell>
        <mxCell id="yrJp2ZyePW3_RDwl9xaa-49" style="edgeStyle=orthogonalEdgeStyle;rounded=0;orthogonalLoop=1;jettySize=auto;html=1;entryX=0.5;entryY=1;entryDx=0;entryDy=0;fillColor=#f0a30a;strokeColor=#BD7000;" parent="1" source="y3AjJPNpV2lvp0vPa8tg-157" target="yrJp2ZyePW3_RDwl9xaa-45" edge="1">
          <mxGeometry relative="1" as="geometry" />
        </mxCell>
        <mxCell id="y3AjJPNpV2lvp0vPa8tg-157" value="No hay jugada disponible" style="rounded=0;whiteSpace=wrap;html=1;fillColor=#f0a30a;fontColor=#000000;strokeColor=#BD7000;" parent="1" vertex="1">
          <mxGeometry x="682.4971428571429" y="620" width="120" height="60" as="geometry" />
        </mxCell>
        <mxCell id="y3AjJPNpV2lvp0vPa8tg-158" value="SI" style="text;html=1;align=center;verticalAlign=middle;resizable=0;points=[];autosize=1;strokeColor=none;fillColor=none;" parent="1" vertex="1">
          <mxGeometry x="682.5" y="920" width="30" height="30" as="geometry" />
        </mxCell>
        <mxCell id="y3AjJPNpV2lvp0vPa8tg-159" value="NO" style="text;html=1;align=center;verticalAlign=middle;resizable=0;points=[];autosize=1;strokeColor=none;fillColor=none;" parent="1" vertex="1">
          <mxGeometry x="555" y="933.19" width="40" height="30" as="geometry" />
        </mxCell>
        <mxCell id="y3AjJPNpV2lvp0vPa8tg-171" style="edgeStyle=orthogonalEdgeStyle;rounded=0;orthogonalLoop=1;jettySize=auto;html=1;exitX=0.25;exitY=1;exitDx=0;exitDy=0;entryX=0.5;entryY=0;entryDx=0;entryDy=0;" parent="1" source="y3AjJPNpV2lvp0vPa8tg-163" target="y3AjJPNpV2lvp0vPa8tg-167" edge="1">
          <mxGeometry relative="1" as="geometry" />
        </mxCell>
        <mxCell id="y3AjJPNpV2lvp0vPa8tg-172" style="edgeStyle=orthogonalEdgeStyle;rounded=0;orthogonalLoop=1;jettySize=auto;html=1;exitX=0.5;exitY=1;exitDx=0;exitDy=0;entryX=0.5;entryY=0;entryDx=0;entryDy=0;" parent="1" source="y3AjJPNpV2lvp0vPa8tg-163" target="y3AjJPNpV2lvp0vPa8tg-165" edge="1">
          <mxGeometry relative="1" as="geometry">
            <Array as="points">
              <mxPoint x="499" y="1270" />
              <mxPoint x="470" y="1270" />
            </Array>
          </mxGeometry>
        </mxCell>
        <mxCell id="y3AjJPNpV2lvp0vPa8tg-173" style="edgeStyle=orthogonalEdgeStyle;rounded=0;orthogonalLoop=1;jettySize=auto;html=1;exitX=0.92;exitY=1.008;exitDx=0;exitDy=0;entryX=0.5;entryY=0;entryDx=0;entryDy=0;exitPerimeter=0;" parent="1" source="y3AjJPNpV2lvp0vPa8tg-163" target="y3AjJPNpV2lvp0vPa8tg-168" edge="1">
          <mxGeometry relative="1" as="geometry" />
        </mxCell>
        <mxCell id="y3AjJPNpV2lvp0vPa8tg-163" value="Para cada coordenada verificar si es&lt;br&gt;horizontal, vertical o diagonal. y si es + o - comparado con la posicion a evaluar" style="rounded=0;whiteSpace=wrap;html=1;" parent="1" vertex="1">
          <mxGeometry x="430" y="1160" width="240.78" height="80" as="geometry" />
        </mxCell>
        <mxCell id="y3AjJPNpV2lvp0vPa8tg-176" style="edgeStyle=orthogonalEdgeStyle;rounded=0;orthogonalLoop=1;jettySize=auto;html=1;exitX=1;exitY=0.5;exitDx=0;exitDy=0;entryX=0.5;entryY=1;entryDx=0;entryDy=0;" parent="1" source="y3AjJPNpV2lvp0vPa8tg-165" target="y3AjJPNpV2lvp0vPa8tg-163" edge="1">
          <mxGeometry relative="1" as="geometry">
            <Array as="points">
              <mxPoint x="530" y="1340" />
              <mxPoint x="530" y="1260" />
              <mxPoint x="550" y="1260" />
            </Array>
          </mxGeometry>
        </mxCell>
        <mxCell id="yrJp2ZyePW3_RDwl9xaa-2" style="edgeStyle=orthogonalEdgeStyle;rounded=0;orthogonalLoop=1;jettySize=auto;html=1;exitX=0.5;exitY=1;exitDx=0;exitDy=0;entryX=0.5;entryY=0;entryDx=0;entryDy=0;" parent="1" source="y3AjJPNpV2lvp0vPa8tg-165" target="yrJp2ZyePW3_RDwl9xaa-6" edge="1">
          <mxGeometry relative="1" as="geometry">
            <mxPoint x="420" y="1430" as="targetPoint" />
          </mxGeometry>
        </mxCell>
        <mxCell id="y3AjJPNpV2lvp0vPa8tg-165" value="veritcal" style="rhombus;whiteSpace=wrap;html=1;" parent="1" vertex="1">
          <mxGeometry x="430" y="1300" width="80" height="80" as="geometry" />
        </mxCell>
        <mxCell id="y3AjJPNpV2lvp0vPa8tg-175" style="edgeStyle=orthogonalEdgeStyle;rounded=0;orthogonalLoop=1;jettySize=auto;html=1;exitX=0;exitY=0.5;exitDx=0;exitDy=0;entryX=0;entryY=0.25;entryDx=0;entryDy=0;" parent="1" source="y3AjJPNpV2lvp0vPa8tg-167" target="y3AjJPNpV2lvp0vPa8tg-163" edge="1">
          <mxGeometry relative="1" as="geometry">
            <Array as="points">
              <mxPoint x="300" y="1290" />
              <mxPoint x="300" y="1180" />
            </Array>
            <mxPoint x="430" y="1180" as="targetPoint" />
          </mxGeometry>
        </mxCell>
        <mxCell id="yrJp2ZyePW3_RDwl9xaa-1" style="edgeStyle=orthogonalEdgeStyle;rounded=0;orthogonalLoop=1;jettySize=auto;html=1;exitX=0.5;exitY=1;exitDx=0;exitDy=0;entryX=0.25;entryY=0;entryDx=0;entryDy=0;" parent="1" source="y3AjJPNpV2lvp0vPa8tg-167" target="yrJp2ZyePW3_RDwl9xaa-6" edge="1">
          <mxGeometry relative="1" as="geometry">
            <mxPoint x="260" y="1380" as="targetPoint" />
          </mxGeometry>
        </mxCell>
        <mxCell id="y3AjJPNpV2lvp0vPa8tg-167" value="horizontal" style="rhombus;whiteSpace=wrap;html=1;" parent="1" vertex="1">
          <mxGeometry x="315" y="1250" width="80" height="80" as="geometry" />
        </mxCell>
        <mxCell id="y3AjJPNpV2lvp0vPa8tg-174" style="edgeStyle=orthogonalEdgeStyle;rounded=0;orthogonalLoop=1;jettySize=auto;html=1;exitX=1;exitY=0.5;exitDx=0;exitDy=0;entryX=1;entryY=0.75;entryDx=0;entryDy=0;" parent="1" source="y3AjJPNpV2lvp0vPa8tg-168" target="y3AjJPNpV2lvp0vPa8tg-163" edge="1">
          <mxGeometry relative="1" as="geometry">
            <Array as="points">
              <mxPoint x="690" y="1315" />
              <mxPoint x="690" y="1220" />
            </Array>
          </mxGeometry>
        </mxCell>
        <mxCell id="yrJp2ZyePW3_RDwl9xaa-3" style="edgeStyle=orthogonalEdgeStyle;rounded=0;orthogonalLoop=1;jettySize=auto;html=1;exitX=0.5;exitY=1;exitDx=0;exitDy=0;entryX=0.75;entryY=0;entryDx=0;entryDy=0;" parent="1" source="y3AjJPNpV2lvp0vPa8tg-168" target="yrJp2ZyePW3_RDwl9xaa-6" edge="1">
          <mxGeometry relative="1" as="geometry">
            <mxPoint x="589.9999999999998" y="1430" as="targetPoint" />
          </mxGeometry>
        </mxCell>
        <mxCell id="y3AjJPNpV2lvp0vPa8tg-168" value="diagonal" style="rhombus;whiteSpace=wrap;html=1;" parent="1" vertex="1">
          <mxGeometry x="565" y="1275" width="80" height="80" as="geometry" />
        </mxCell>
        <mxCell id="y3AjJPNpV2lvp0vPa8tg-179" value="NO" style="text;html=1;align=center;verticalAlign=middle;resizable=0;points=[];autosize=1;strokeColor=none;fillColor=none;" parent="1" vertex="1">
          <mxGeometry x="268" y="1260" width="40" height="30" as="geometry" />
        </mxCell>
        <mxCell id="y3AjJPNpV2lvp0vPa8tg-180" value="NO" style="text;html=1;align=center;verticalAlign=middle;resizable=0;points=[];autosize=1;strokeColor=none;fillColor=none;" parent="1" vertex="1">
          <mxGeometry x="500" y="1310" width="40" height="30" as="geometry" />
        </mxCell>
        <mxCell id="yrJp2ZyePW3_RDwl9xaa-4" value="NO" style="text;html=1;align=center;verticalAlign=middle;resizable=0;points=[];autosize=1;strokeColor=none;fillColor=none;" parent="1" vertex="1">
          <mxGeometry x="640" y="1290" width="40" height="30" as="geometry" />
        </mxCell>
        <mxCell id="yrJp2ZyePW3_RDwl9xaa-8" style="edgeStyle=orthogonalEdgeStyle;rounded=0;orthogonalLoop=1;jettySize=auto;html=1;exitX=0.5;exitY=1;exitDx=0;exitDy=0;entryX=0.5;entryY=0;entryDx=0;entryDy=0;" parent="1" source="yrJp2ZyePW3_RDwl9xaa-6" target="yrJp2ZyePW3_RDwl9xaa-7" edge="1">
          <mxGeometry relative="1" as="geometry" />
        </mxCell>
        <mxCell id="yrJp2ZyePW3_RDwl9xaa-6" value="Verificar que tiene la siguiente coordenada" style="rounded=0;whiteSpace=wrap;html=1;" parent="1" vertex="1">
          <mxGeometry x="404.61" y="1430" width="130.78" height="60" as="geometry" />
        </mxCell>
        <mxCell id="yrJp2ZyePW3_RDwl9xaa-9" style="edgeStyle=orthogonalEdgeStyle;rounded=0;orthogonalLoop=1;jettySize=auto;html=1;exitX=0;exitY=0.5;exitDx=0;exitDy=0;entryX=1;entryY=0.5;entryDx=0;entryDy=0;" parent="1" source="yrJp2ZyePW3_RDwl9xaa-7" target="ilQH3FXLHyIzs1iSrpnD-67" edge="1">
          <mxGeometry relative="1" as="geometry">
            <mxPoint x="120" y="1570" as="targetPoint" />
            <Array as="points">
              <mxPoint x="430" y="1520" />
              <mxPoint x="350" y="1520" />
              <mxPoint x="350" y="1490" />
            </Array>
          </mxGeometry>
        </mxCell>
        <mxCell id="yrJp2ZyePW3_RDwl9xaa-10" style="edgeStyle=orthogonalEdgeStyle;rounded=0;orthogonalLoop=1;jettySize=auto;html=1;exitX=1;exitY=0.5;exitDx=0;exitDy=0;entryX=0.984;entryY=0.394;entryDx=0;entryDy=0;entryPerimeter=0;" parent="1" source="yrJp2ZyePW3_RDwl9xaa-7" target="yrJp2ZyePW3_RDwl9xaa-6" edge="1">
          <mxGeometry relative="1" as="geometry">
            <mxPoint x="600" y="1570.3333333333335" as="targetPoint" />
            <Array as="points">
              <mxPoint x="590" y="1570" />
              <mxPoint x="590" y="1454" />
            </Array>
          </mxGeometry>
        </mxCell>
        <mxCell id="yrJp2ZyePW3_RDwl9xaa-13" value="seguir la direccion&lt;br&gt;horintal, vertica, o diag" style="edgeLabel;html=1;align=center;verticalAlign=middle;resizable=0;points=[];" parent="yrJp2ZyePW3_RDwl9xaa-10" vertex="1" connectable="0">
          <mxGeometry x="0.2116" relative="1" as="geometry">
            <mxPoint y="13" as="offset" />
          </mxGeometry>
        </mxCell>
        <mxCell id="yrJp2ZyePW3_RDwl9xaa-7" value="tiene ficha contraria?" style="rhombus;whiteSpace=wrap;html=1;" parent="1" vertex="1">
          <mxGeometry x="430" y="1530" width="80" height="80" as="geometry" />
        </mxCell>
        <mxCell id="yrJp2ZyePW3_RDwl9xaa-11" value="NO" style="text;html=1;align=center;verticalAlign=middle;resizable=0;points=[];autosize=1;strokeColor=none;fillColor=none;" parent="1" vertex="1">
          <mxGeometry x="350" y="1498" width="40" height="30" as="geometry" />
        </mxCell>
        <mxCell id="yrJp2ZyePW3_RDwl9xaa-12" value="SI" style="text;html=1;align=center;verticalAlign=middle;resizable=0;points=[];autosize=1;strokeColor=none;fillColor=none;" parent="1" vertex="1">
          <mxGeometry x="560" y="1540" width="30" height="30" as="geometry" />
        </mxCell>
        <mxCell id="yrJp2ZyePW3_RDwl9xaa-15" value="Deberia ser un espacio vacio" style="text;html=1;align=center;verticalAlign=middle;whiteSpace=wrap;rounded=0;" parent="1" vertex="1">
          <mxGeometry x="10" y="1640" width="160" height="30" as="geometry" />
        </mxCell>
        <mxCell id="yrJp2ZyePW3_RDwl9xaa-18" style="edgeStyle=orthogonalEdgeStyle;rounded=0;orthogonalLoop=1;jettySize=auto;html=1;exitX=0.5;exitY=0;exitDx=0;exitDy=0;entryX=0.5;entryY=1;entryDx=0;entryDy=0;fillColor=#60a917;strokeColor=#2D7600;" parent="1" source="yrJp2ZyePW3_RDwl9xaa-16" target="yrJp2ZyePW3_RDwl9xaa-17" edge="1">
          <mxGeometry relative="1" as="geometry" />
        </mxCell>
        <mxCell id="yrJp2ZyePW3_RDwl9xaa-16" value="guardar coord. de inicio y final, y direccion y contar fichas que se darian vuelta" style="rounded=0;whiteSpace=wrap;html=1;" parent="1" vertex="1">
          <mxGeometry x="-62.5" y="1410" width="150" height="60" as="geometry" />
        </mxCell>
        <mxCell id="yrJp2ZyePW3_RDwl9xaa-33" style="edgeStyle=orthogonalEdgeStyle;rounded=0;orthogonalLoop=1;jettySize=auto;html=1;exitX=0.5;exitY=0;exitDx=0;exitDy=0;entryX=0.5;entryY=1;entryDx=0;entryDy=0;fillColor=#60a917;strokeColor=#2D7600;" parent="1" source="yrJp2ZyePW3_RDwl9xaa-17" target="ilQH3FXLHyIzs1iSrpnD-79" edge="1">
          <mxGeometry relative="1" as="geometry" />
        </mxCell>
        <mxCell id="yrJp2ZyePW3_RDwl9xaa-17" value="devolver al sistema posible jugada" style="rounded=0;whiteSpace=wrap;html=1;fillColor=#60a917;fontColor=#ffffff;strokeColor=#2D7600;" parent="1" vertex="1">
          <mxGeometry x="-55" y="1033" width="135" height="60" as="geometry" />
        </mxCell>
        <mxCell id="yrJp2ZyePW3_RDwl9xaa-20" style="edgeStyle=orthogonalEdgeStyle;rounded=0;orthogonalLoop=1;jettySize=auto;html=1;entryX=0.5;entryY=1;entryDx=0;entryDy=0;exitX=0;exitY=0.5;exitDx=0;exitDy=0;fillColor=#60a917;strokeColor=#2D7600;" parent="1" source="yrJp2ZyePW3_RDwl9xaa-19" target="yrJp2ZyePW3_RDwl9xaa-16" edge="1">
          <mxGeometry relative="1" as="geometry" />
        </mxCell>
        <mxCell id="yrJp2ZyePW3_RDwl9xaa-22" style="edgeStyle=orthogonalEdgeStyle;rounded=0;orthogonalLoop=1;jettySize=auto;html=1;exitX=1;exitY=0.5;exitDx=0;exitDy=0;entryX=1;entryY=0.5;entryDx=0;entryDy=0;fillColor=#f0a30a;strokeColor=#BD7000;" parent="1" source="yrJp2ZyePW3_RDwl9xaa-19" target="ilQH3FXLHyIzs1iSrpnD-97" edge="1">
          <mxGeometry relative="1" as="geometry">
            <mxPoint x="800" y="1280" as="targetPoint" />
            <Array as="points">
              <mxPoint x="950" y="1640" />
              <mxPoint x="950" y="1067" />
            </Array>
          </mxGeometry>
        </mxCell>
        <mxCell id="yrJp2ZyePW3_RDwl9xaa-19" value="fuera de tablero?" style="rhombus;whiteSpace=wrap;html=1;" parent="1" vertex="1">
          <mxGeometry x="230" y="1600" width="80" height="80" as="geometry" />
        </mxCell>
        <mxCell id="yrJp2ZyePW3_RDwl9xaa-21" value="NO" style="text;html=1;align=center;verticalAlign=middle;resizable=0;points=[];autosize=1;strokeColor=none;fillColor=none;" parent="1" vertex="1">
          <mxGeometry x="187" y="1615" width="40" height="30" as="geometry" />
        </mxCell>
        <mxCell id="yrJp2ZyePW3_RDwl9xaa-23" value="SI" style="text;html=1;align=center;verticalAlign=middle;resizable=0;points=[];autosize=1;strokeColor=none;fillColor=none;" parent="1" vertex="1">
          <mxGeometry x="325" y="1615" width="30" height="30" as="geometry" />
        </mxCell>
        <mxCell id="yrJp2ZyePW3_RDwl9xaa-24" value="&amp;nbsp;Jugada&lt;span style=&quot;white-space: pre;&quot;&gt;&#x9;&lt;/span&gt;" style="swimlane;fontStyle=0;childLayout=stackLayout;horizontal=1;startSize=30;horizontalStack=0;resizeParent=1;resizeParentMax=0;resizeLast=0;collapsible=1;marginBottom=0;whiteSpace=wrap;html=1;" parent="1" vertex="1">
          <mxGeometry x="-770" y="924.37" width="140" height="180" as="geometry">
            <mxRectangle x="-770" y="924.37" width="90" height="30" as="alternateBounds" />
          </mxGeometry>
        </mxCell>
        <mxCell id="yrJp2ZyePW3_RDwl9xaa-25" value="Jugador id" style="text;strokeColor=none;fillColor=none;align=left;verticalAlign=middle;spacingLeft=4;spacingRight=4;overflow=hidden;points=[[0,0.5],[1,0.5]];portConstraint=eastwest;rotatable=0;whiteSpace=wrap;html=1;" parent="yrJp2ZyePW3_RDwl9xaa-24" vertex="1">
          <mxGeometry y="30" width="140" height="30" as="geometry" />
        </mxCell>
        <mxCell id="ilQH3FXLHyIzs1iSrpnD-73" value="ID_jugada" style="text;strokeColor=none;fillColor=none;align=left;verticalAlign=middle;spacingLeft=4;spacingRight=4;overflow=hidden;points=[[0,0.5],[1,0.5]];portConstraint=eastwest;rotatable=0;whiteSpace=wrap;html=1;" vertex="1" parent="yrJp2ZyePW3_RDwl9xaa-24">
          <mxGeometry y="60" width="140" height="30" as="geometry" />
        </mxCell>
        <mxCell id="yrJp2ZyePW3_RDwl9xaa-26" value="coordenada inicio" style="text;strokeColor=none;fillColor=none;align=left;verticalAlign=middle;spacingLeft=4;spacingRight=4;overflow=hidden;points=[[0,0.5],[1,0.5]];portConstraint=eastwest;rotatable=0;whiteSpace=wrap;html=1;" parent="yrJp2ZyePW3_RDwl9xaa-24" vertex="1">
          <mxGeometry y="90" width="140" height="30" as="geometry" />
        </mxCell>
        <mxCell id="yrJp2ZyePW3_RDwl9xaa-27" value="coordenada fin" style="text;strokeColor=none;fillColor=none;align=left;verticalAlign=middle;spacingLeft=4;spacingRight=4;overflow=hidden;points=[[0,0.5],[1,0.5]];portConstraint=eastwest;rotatable=0;whiteSpace=wrap;html=1;" parent="yrJp2ZyePW3_RDwl9xaa-24" vertex="1">
          <mxGeometry y="120" width="140" height="30" as="geometry" />
        </mxCell>
        <mxCell id="yrJp2ZyePW3_RDwl9xaa-29" value="char direccion[12]" style="text;strokeColor=none;fillColor=none;align=left;verticalAlign=middle;spacingLeft=4;spacingRight=4;overflow=hidden;points=[[0,0.5],[1,0.5]];portConstraint=eastwest;rotatable=0;whiteSpace=wrap;html=1;" parent="yrJp2ZyePW3_RDwl9xaa-24" vertex="1">
          <mxGeometry y="150" width="140" height="30" as="geometry" />
        </mxCell>
        <mxCell id="3wu-XQMlBxBPhiy1aAq9-22" style="edgeStyle=orthogonalEdgeStyle;rounded=0;orthogonalLoop=1;jettySize=auto;html=1;exitX=0.5;exitY=1;exitDx=0;exitDy=0;entryX=0.5;entryY=0;entryDx=0;entryDy=0;" parent="1" source="3wu-XQMlBxBPhiy1aAq9-1" target="3wu-XQMlBxBPhiy1aAq9-2" edge="1">
          <mxGeometry relative="1" as="geometry" />
        </mxCell>
        <mxCell id="3wu-XQMlBxBPhiy1aAq9-1" value="&lt;div&gt;Ingresar jugadores&lt;/div&gt;" style="rounded=1;whiteSpace=wrap;html=1;fillColor=#1ba1e2;fontColor=#ffffff;strokeColor=#006EAF;" parent="1" vertex="1">
          <mxGeometry x="320.0008965517241" y="268.63" width="82.50041379310345" height="41.25" as="geometry" />
        </mxCell>
        <mxCell id="3wu-XQMlBxBPhiy1aAq9-23" style="edgeStyle=orthogonalEdgeStyle;rounded=0;orthogonalLoop=1;jettySize=auto;html=1;exitX=0.5;exitY=1;exitDx=0;exitDy=0;entryX=0.5;entryY=0;entryDx=0;entryDy=0;" parent="1" source="3wu-XQMlBxBPhiy1aAq9-2" target="3wu-XQMlBxBPhiy1aAq9-6" edge="1">
          <mxGeometry relative="1" as="geometry" />
        </mxCell>
        <mxCell id="3wu-XQMlBxBPhiy1aAq9-2" value="Iniciar tablero" style="rounded=1;whiteSpace=wrap;html=1;" parent="1" vertex="1">
          <mxGeometry x="320.0008965517241" y="359.995" width="82.50041379310345" height="41.25" as="geometry" />
        </mxCell>
        <mxCell id="ilQH3FXLHyIzs1iSrpnD-77" style="edgeStyle=orthogonalEdgeStyle;rounded=0;orthogonalLoop=1;jettySize=auto;html=1;exitX=0.5;exitY=1;exitDx=0;exitDy=0;entryX=0.5;entryY=0;entryDx=0;entryDy=0;" edge="1" parent="1" source="3wu-XQMlBxBPhiy1aAq9-6" target="y3AjJPNpV2lvp0vPa8tg-111">
          <mxGeometry relative="1" as="geometry" />
        </mxCell>
        <mxCell id="3wu-XQMlBxBPhiy1aAq9-6" value="dar turno / actualizar turno jugador" style="rounded=1;whiteSpace=wrap;html=1;" parent="1" vertex="1">
          <mxGeometry x="320.0008965517241" y="448.88" width="82.50041379310345" height="41.25" as="geometry" />
        </mxCell>
        <mxCell id="3wu-XQMlBxBPhiy1aAq9-12" value="Terminar juego" style="rounded=1;whiteSpace=wrap;html=1;fillColor=#a20025;fontColor=#ffffff;strokeColor=#6F0000;" parent="1" vertex="1">
          <mxGeometry x="619.9968965517241" y="206.75" width="82.50041379310345" height="41.25" as="geometry" />
        </mxCell>
        <mxCell id="yrJp2ZyePW3_RDwl9xaa-42" style="edgeStyle=orthogonalEdgeStyle;rounded=0;orthogonalLoop=1;jettySize=auto;html=1;exitX=0;exitY=0.5;exitDx=0;exitDy=0;entryX=0.5;entryY=1;entryDx=0;entryDy=0;" parent="1" source="3wu-XQMlBxBPhiy1aAq9-14" target="ilQH3FXLHyIzs1iSrpnD-81" edge="1">
          <mxGeometry relative="1" as="geometry">
            <mxPoint x="340" y="140" as="targetPoint" />
            <Array as="points">
              <mxPoint x="490" y="459" />
              <mxPoint x="490" y="230" />
            </Array>
          </mxGeometry>
        </mxCell>
        <mxCell id="yrJp2ZyePW3_RDwl9xaa-43" style="edgeStyle=orthogonalEdgeStyle;rounded=0;orthogonalLoop=1;jettySize=auto;html=1;exitX=0.5;exitY=0;exitDx=0;exitDy=0;entryX=0.5;entryY=1;entryDx=0;entryDy=0;fillColor=#f0a30a;strokeColor=#BD7000;" parent="1" source="3wu-XQMlBxBPhiy1aAq9-14" target="3wu-XQMlBxBPhiy1aAq9-12" edge="1">
          <mxGeometry relative="1" as="geometry" />
        </mxCell>
        <mxCell id="3wu-XQMlBxBPhiy1aAq9-14" value="FIN JUEGO = 2" style="rhombus;whiteSpace=wrap;html=1;" parent="1" vertex="1">
          <mxGeometry x="540" y="417.81" width="110" height="82.19" as="geometry" />
        </mxCell>
        <mxCell id="yrJp2ZyePW3_RDwl9xaa-39" style="edgeStyle=orthogonalEdgeStyle;rounded=0;orthogonalLoop=1;jettySize=auto;html=1;exitX=0.5;exitY=0;exitDx=0;exitDy=0;entryX=0.5;entryY=0;entryDx=0;entryDy=0;fillColor=#60a917;strokeColor=#2D7600;" parent="1" source="3wu-XQMlBxBPhiy1aAq9-27" target="ilQH3FXLHyIzs1iSrpnD-81" edge="1">
          <mxGeometry relative="1" as="geometry" />
        </mxCell>
        <mxCell id="3wu-XQMlBxBPhiy1aAq9-27" value="actualizar tablero" style="rounded=1;whiteSpace=wrap;html=1;" parent="1" vertex="1">
          <mxGeometry x="40" y="290" width="82.50041379310345" height="41.25" as="geometry" />
        </mxCell>
        <mxCell id="yrJp2ZyePW3_RDwl9xaa-37" style="edgeStyle=orthogonalEdgeStyle;rounded=0;orthogonalLoop=1;jettySize=auto;html=1;exitX=0.5;exitY=0;exitDx=0;exitDy=0;entryX=0.5;entryY=1;entryDx=0;entryDy=0;fillColor=#60a917;strokeColor=#2D7600;" parent="1" source="ilQH3FXLHyIzs1iSrpnD-74" target="3wu-XQMlBxBPhiy1aAq9-30" edge="1">
          <mxGeometry relative="1" as="geometry" />
        </mxCell>
        <mxCell id="ilQH3FXLHyIzs1iSrpnD-75" style="edgeStyle=orthogonalEdgeStyle;rounded=0;orthogonalLoop=1;jettySize=auto;html=1;entryX=0.5;entryY=1;entryDx=0;entryDy=0;fillColor=#60a917;strokeColor=#2D7600;" edge="1" parent="1" source="3wu-XQMlBxBPhiy1aAq9-29" target="ilQH3FXLHyIzs1iSrpnD-74">
          <mxGeometry relative="1" as="geometry" />
        </mxCell>
        <mxCell id="3wu-XQMlBxBPhiy1aAq9-29" value="agregar jugada" style="rounded=1;whiteSpace=wrap;html=1;" parent="1" vertex="1">
          <mxGeometry x="40" y="608.74" width="82.50041379310345" height="41.25" as="geometry" />
        </mxCell>
        <mxCell id="yrJp2ZyePW3_RDwl9xaa-38" style="edgeStyle=orthogonalEdgeStyle;rounded=0;orthogonalLoop=1;jettySize=auto;html=1;exitX=0.5;exitY=0;exitDx=0;exitDy=0;entryX=0.5;entryY=1;entryDx=0;entryDy=0;fillColor=#60a917;strokeColor=#2D7600;" parent="1" source="3wu-XQMlBxBPhiy1aAq9-30" target="3wu-XQMlBxBPhiy1aAq9-27" edge="1">
          <mxGeometry relative="1" as="geometry" />
        </mxCell>
        <mxCell id="3wu-XQMlBxBPhiy1aAq9-30" value="actualizar contador de fichas a favor" style="rounded=1;whiteSpace=wrap;html=1;" parent="1" vertex="1">
          <mxGeometry x="13.75" y="392.38" width="135" height="41.25" as="geometry" />
        </mxCell>
        <mxCell id="yrJp2ZyePW3_RDwl9xaa-44" value="SI" style="text;html=1;align=center;verticalAlign=middle;resizable=0;points=[];autosize=1;strokeColor=none;fillColor=none;" parent="1" vertex="1">
          <mxGeometry x="505" y="980" width="30" height="30" as="geometry" />
        </mxCell>
        <mxCell id="yrJp2ZyePW3_RDwl9xaa-45" value="agregar 1 a finJuego" style="rounded=0;whiteSpace=wrap;html=1;" parent="1" vertex="1">
          <mxGeometry x="682.5" y="511.25" width="120" height="41.25" as="geometry" />
        </mxCell>
        <mxCell id="yrJp2ZyePW3_RDwl9xaa-47" value="NO" style="text;html=1;align=center;verticalAlign=middle;resizable=0;points=[];autosize=1;strokeColor=none;fillColor=none;" parent="1" vertex="1">
          <mxGeometry x="500" y="430" width="40" height="30" as="geometry" />
        </mxCell>
        <mxCell id="yrJp2ZyePW3_RDwl9xaa-48" value="SI" style="text;html=1;align=center;verticalAlign=middle;resizable=0;points=[];autosize=1;strokeColor=none;fillColor=none;" parent="1" vertex="1">
          <mxGeometry x="600" y="309.88" width="30" height="30" as="geometry" />
        </mxCell>
        <mxCell id="yrJp2ZyePW3_RDwl9xaa-50" value="si finJuego = 2 ninguno de los 2 jugadores tiene jugadas posibles" style="text;html=1;align=left;verticalAlign=middle;whiteSpace=wrap;rounded=0;fontSize=10;fontStyle=2" parent="1" vertex="1">
          <mxGeometry x="680" y="428" width="252.5" height="30" as="geometry" />
        </mxCell>
        <mxCell id="yrJp2ZyePW3_RDwl9xaa-66" value="" style="shape=table;startSize=0;container=1;collapsible=0;childLayout=tableLayout;fontSize=16;fontStyle=1" parent="1" vertex="1">
          <mxGeometry x="-720" y="351.13" width="600" height="400" as="geometry" />
        </mxCell>
        <mxCell id="yrJp2ZyePW3_RDwl9xaa-67" value="" style="shape=tableRow;horizontal=0;startSize=0;swimlaneHead=0;swimlaneBody=0;strokeColor=inherit;top=0;left=0;bottom=0;right=0;collapsible=0;dropTarget=0;fillColor=none;points=[[0,0.5],[1,0.5]];portConstraint=eastwest;fontSize=16;" parent="yrJp2ZyePW3_RDwl9xaa-66" vertex="1">
          <mxGeometry width="600" height="40" as="geometry" />
        </mxCell>
        <mxCell id="yrJp2ZyePW3_RDwl9xaa-68" value="" style="shape=partialRectangle;html=1;whiteSpace=wrap;connectable=0;strokeColor=inherit;overflow=hidden;fillColor=none;top=0;left=0;bottom=0;right=0;pointerEvents=1;fontSize=16;" parent="yrJp2ZyePW3_RDwl9xaa-67" vertex="1">
          <mxGeometry width="60" height="40" as="geometry">
            <mxRectangle width="60" height="40" as="alternateBounds" />
          </mxGeometry>
        </mxCell>
        <mxCell id="yrJp2ZyePW3_RDwl9xaa-69" value="1" style="shape=partialRectangle;html=1;whiteSpace=wrap;connectable=0;strokeColor=inherit;overflow=hidden;fillColor=none;top=0;left=0;bottom=0;right=0;pointerEvents=1;fontSize=16;" parent="yrJp2ZyePW3_RDwl9xaa-67" vertex="1">
          <mxGeometry x="60" width="60" height="40" as="geometry">
            <mxRectangle width="60" height="40" as="alternateBounds" />
          </mxGeometry>
        </mxCell>
        <mxCell id="yrJp2ZyePW3_RDwl9xaa-70" value="2" style="shape=partialRectangle;html=1;whiteSpace=wrap;connectable=0;strokeColor=inherit;overflow=hidden;fillColor=none;top=0;left=0;bottom=0;right=0;pointerEvents=1;fontSize=16;" parent="yrJp2ZyePW3_RDwl9xaa-67" vertex="1">
          <mxGeometry x="120" width="60" height="40" as="geometry">
            <mxRectangle width="60" height="40" as="alternateBounds" />
          </mxGeometry>
        </mxCell>
        <mxCell id="yrJp2ZyePW3_RDwl9xaa-79" value="3" style="shape=partialRectangle;html=1;whiteSpace=wrap;connectable=0;strokeColor=inherit;overflow=hidden;fillColor=none;top=0;left=0;bottom=0;right=0;pointerEvents=1;fontSize=16;" parent="yrJp2ZyePW3_RDwl9xaa-67" vertex="1">
          <mxGeometry x="180" width="60" height="40" as="geometry">
            <mxRectangle width="60" height="40" as="alternateBounds" />
          </mxGeometry>
        </mxCell>
        <mxCell id="yrJp2ZyePW3_RDwl9xaa-82" value="4" style="shape=partialRectangle;html=1;whiteSpace=wrap;connectable=0;strokeColor=inherit;overflow=hidden;fillColor=none;top=0;left=0;bottom=0;right=0;pointerEvents=1;fontSize=16;" parent="yrJp2ZyePW3_RDwl9xaa-67" vertex="1">
          <mxGeometry x="240" width="60" height="40" as="geometry">
            <mxRectangle width="60" height="40" as="alternateBounds" />
          </mxGeometry>
        </mxCell>
        <mxCell id="yrJp2ZyePW3_RDwl9xaa-85" value="5" style="shape=partialRectangle;html=1;whiteSpace=wrap;connectable=0;strokeColor=inherit;overflow=hidden;fillColor=none;top=0;left=0;bottom=0;right=0;pointerEvents=1;fontSize=16;" parent="yrJp2ZyePW3_RDwl9xaa-67" vertex="1">
          <mxGeometry x="300" width="60" height="40" as="geometry">
            <mxRectangle width="60" height="40" as="alternateBounds" />
          </mxGeometry>
        </mxCell>
        <mxCell id="yrJp2ZyePW3_RDwl9xaa-88" value="6" style="shape=partialRectangle;html=1;whiteSpace=wrap;connectable=0;strokeColor=inherit;overflow=hidden;fillColor=none;top=0;left=0;bottom=0;right=0;pointerEvents=1;fontSize=16;" parent="yrJp2ZyePW3_RDwl9xaa-67" vertex="1">
          <mxGeometry x="360" width="60" height="40" as="geometry">
            <mxRectangle width="60" height="40" as="alternateBounds" />
          </mxGeometry>
        </mxCell>
        <mxCell id="yrJp2ZyePW3_RDwl9xaa-91" value="7" style="shape=partialRectangle;html=1;whiteSpace=wrap;connectable=0;strokeColor=inherit;overflow=hidden;fillColor=none;top=0;left=0;bottom=0;right=0;pointerEvents=1;fontSize=16;" parent="yrJp2ZyePW3_RDwl9xaa-67" vertex="1">
          <mxGeometry x="420" width="60" height="40" as="geometry">
            <mxRectangle width="60" height="40" as="alternateBounds" />
          </mxGeometry>
        </mxCell>
        <mxCell id="yrJp2ZyePW3_RDwl9xaa-94" value="8" style="shape=partialRectangle;html=1;whiteSpace=wrap;connectable=0;strokeColor=inherit;overflow=hidden;fillColor=none;top=0;left=0;bottom=0;right=0;pointerEvents=1;fontSize=16;" parent="yrJp2ZyePW3_RDwl9xaa-67" vertex="1">
          <mxGeometry x="480" width="60" height="40" as="geometry">
            <mxRectangle width="60" height="40" as="alternateBounds" />
          </mxGeometry>
        </mxCell>
        <mxCell id="yrJp2ZyePW3_RDwl9xaa-97" style="shape=partialRectangle;html=1;whiteSpace=wrap;connectable=0;strokeColor=inherit;overflow=hidden;fillColor=none;top=0;left=0;bottom=0;right=0;pointerEvents=1;fontSize=16;" parent="yrJp2ZyePW3_RDwl9xaa-67" vertex="1">
          <mxGeometry x="540" width="60" height="40" as="geometry">
            <mxRectangle width="60" height="40" as="alternateBounds" />
          </mxGeometry>
        </mxCell>
        <mxCell id="yrJp2ZyePW3_RDwl9xaa-71" value="" style="shape=tableRow;horizontal=0;startSize=0;swimlaneHead=0;swimlaneBody=0;strokeColor=inherit;top=0;left=0;bottom=0;right=0;collapsible=0;dropTarget=0;fillColor=none;points=[[0,0.5],[1,0.5]];portConstraint=eastwest;fontSize=16;" parent="yrJp2ZyePW3_RDwl9xaa-66" vertex="1">
          <mxGeometry y="40" width="600" height="40" as="geometry" />
        </mxCell>
        <mxCell id="yrJp2ZyePW3_RDwl9xaa-72" value="1" style="shape=partialRectangle;html=1;whiteSpace=wrap;connectable=0;strokeColor=inherit;overflow=hidden;fillColor=none;top=0;left=0;bottom=0;right=0;pointerEvents=1;fontSize=16;" parent="yrJp2ZyePW3_RDwl9xaa-71" vertex="1">
          <mxGeometry width="60" height="40" as="geometry">
            <mxRectangle width="60" height="40" as="alternateBounds" />
          </mxGeometry>
        </mxCell>
        <mxCell id="yrJp2ZyePW3_RDwl9xaa-73" value="" style="shape=partialRectangle;html=1;whiteSpace=wrap;connectable=0;strokeColor=inherit;overflow=hidden;fillColor=none;top=0;left=0;bottom=0;right=0;pointerEvents=1;fontSize=16;" parent="yrJp2ZyePW3_RDwl9xaa-71" vertex="1">
          <mxGeometry x="60" width="60" height="40" as="geometry">
            <mxRectangle width="60" height="40" as="alternateBounds" />
          </mxGeometry>
        </mxCell>
        <mxCell id="yrJp2ZyePW3_RDwl9xaa-74" value="" style="shape=partialRectangle;html=1;whiteSpace=wrap;connectable=0;strokeColor=inherit;overflow=hidden;fillColor=none;top=0;left=0;bottom=0;right=0;pointerEvents=1;fontSize=16;" parent="yrJp2ZyePW3_RDwl9xaa-71" vertex="1">
          <mxGeometry x="120" width="60" height="40" as="geometry">
            <mxRectangle width="60" height="40" as="alternateBounds" />
          </mxGeometry>
        </mxCell>
        <mxCell id="yrJp2ZyePW3_RDwl9xaa-80" value="" style="shape=partialRectangle;html=1;whiteSpace=wrap;connectable=0;strokeColor=inherit;overflow=hidden;fillColor=none;top=0;left=0;bottom=0;right=0;pointerEvents=1;fontSize=16;" parent="yrJp2ZyePW3_RDwl9xaa-71" vertex="1">
          <mxGeometry x="180" width="60" height="40" as="geometry">
            <mxRectangle width="60" height="40" as="alternateBounds" />
          </mxGeometry>
        </mxCell>
        <mxCell id="yrJp2ZyePW3_RDwl9xaa-83" value="" style="shape=partialRectangle;html=1;whiteSpace=wrap;connectable=0;strokeColor=inherit;overflow=hidden;fillColor=none;top=0;left=0;bottom=0;right=0;pointerEvents=1;fontSize=16;" parent="yrJp2ZyePW3_RDwl9xaa-71" vertex="1">
          <mxGeometry x="240" width="60" height="40" as="geometry">
            <mxRectangle width="60" height="40" as="alternateBounds" />
          </mxGeometry>
        </mxCell>
        <mxCell id="yrJp2ZyePW3_RDwl9xaa-86" value="" style="shape=partialRectangle;html=1;whiteSpace=wrap;connectable=0;strokeColor=inherit;overflow=hidden;fillColor=none;top=0;left=0;bottom=0;right=0;pointerEvents=1;fontSize=16;" parent="yrJp2ZyePW3_RDwl9xaa-71" vertex="1">
          <mxGeometry x="300" width="60" height="40" as="geometry">
            <mxRectangle width="60" height="40" as="alternateBounds" />
          </mxGeometry>
        </mxCell>
        <mxCell id="yrJp2ZyePW3_RDwl9xaa-89" value="" style="shape=partialRectangle;html=1;whiteSpace=wrap;connectable=0;strokeColor=inherit;overflow=hidden;fillColor=none;top=0;left=0;bottom=0;right=0;pointerEvents=1;fontSize=16;" parent="yrJp2ZyePW3_RDwl9xaa-71" vertex="1">
          <mxGeometry x="360" width="60" height="40" as="geometry">
            <mxRectangle width="60" height="40" as="alternateBounds" />
          </mxGeometry>
        </mxCell>
        <mxCell id="yrJp2ZyePW3_RDwl9xaa-92" value="" style="shape=partialRectangle;html=1;whiteSpace=wrap;connectable=0;strokeColor=inherit;overflow=hidden;fillColor=none;top=0;left=0;bottom=0;right=0;pointerEvents=1;fontSize=16;" parent="yrJp2ZyePW3_RDwl9xaa-71" vertex="1">
          <mxGeometry x="420" width="60" height="40" as="geometry">
            <mxRectangle width="60" height="40" as="alternateBounds" />
          </mxGeometry>
        </mxCell>
        <mxCell id="yrJp2ZyePW3_RDwl9xaa-95" value="" style="shape=partialRectangle;html=1;whiteSpace=wrap;connectable=0;strokeColor=inherit;overflow=hidden;fillColor=none;top=0;left=0;bottom=0;right=0;pointerEvents=1;fontSize=16;" parent="yrJp2ZyePW3_RDwl9xaa-71" vertex="1">
          <mxGeometry x="480" width="60" height="40" as="geometry">
            <mxRectangle width="60" height="40" as="alternateBounds" />
          </mxGeometry>
        </mxCell>
        <mxCell id="yrJp2ZyePW3_RDwl9xaa-98" value="1" style="shape=partialRectangle;html=1;whiteSpace=wrap;connectable=0;strokeColor=inherit;overflow=hidden;fillColor=none;top=0;left=0;bottom=0;right=0;pointerEvents=1;fontSize=16;" parent="yrJp2ZyePW3_RDwl9xaa-71" vertex="1">
          <mxGeometry x="540" width="60" height="40" as="geometry">
            <mxRectangle width="60" height="40" as="alternateBounds" />
          </mxGeometry>
        </mxCell>
        <mxCell id="yrJp2ZyePW3_RDwl9xaa-75" value="" style="shape=tableRow;horizontal=0;startSize=0;swimlaneHead=0;swimlaneBody=0;strokeColor=inherit;top=0;left=0;bottom=0;right=0;collapsible=0;dropTarget=0;fillColor=none;points=[[0,0.5],[1,0.5]];portConstraint=eastwest;fontSize=16;" parent="yrJp2ZyePW3_RDwl9xaa-66" vertex="1">
          <mxGeometry y="80" width="600" height="40" as="geometry" />
        </mxCell>
        <mxCell id="yrJp2ZyePW3_RDwl9xaa-76" value="2" style="shape=partialRectangle;html=1;whiteSpace=wrap;connectable=0;strokeColor=inherit;overflow=hidden;fillColor=none;top=0;left=0;bottom=0;right=0;pointerEvents=1;fontSize=16;" parent="yrJp2ZyePW3_RDwl9xaa-75" vertex="1">
          <mxGeometry width="60" height="40" as="geometry">
            <mxRectangle width="60" height="40" as="alternateBounds" />
          </mxGeometry>
        </mxCell>
        <mxCell id="yrJp2ZyePW3_RDwl9xaa-77" value="" style="shape=partialRectangle;html=1;whiteSpace=wrap;connectable=0;strokeColor=inherit;overflow=hidden;fillColor=none;top=0;left=0;bottom=0;right=0;pointerEvents=1;fontSize=16;" parent="yrJp2ZyePW3_RDwl9xaa-75" vertex="1">
          <mxGeometry x="60" width="60" height="40" as="geometry">
            <mxRectangle width="60" height="40" as="alternateBounds" />
          </mxGeometry>
        </mxCell>
        <mxCell id="yrJp2ZyePW3_RDwl9xaa-78" value="" style="shape=partialRectangle;html=1;whiteSpace=wrap;connectable=0;strokeColor=inherit;overflow=hidden;fillColor=none;top=0;left=0;bottom=0;right=0;pointerEvents=1;fontSize=16;" parent="yrJp2ZyePW3_RDwl9xaa-75" vertex="1">
          <mxGeometry x="120" width="60" height="40" as="geometry">
            <mxRectangle width="60" height="40" as="alternateBounds" />
          </mxGeometry>
        </mxCell>
        <mxCell id="yrJp2ZyePW3_RDwl9xaa-81" style="shape=partialRectangle;html=1;whiteSpace=wrap;connectable=0;strokeColor=inherit;overflow=hidden;fillColor=none;top=0;left=0;bottom=0;right=0;pointerEvents=1;fontSize=16;" parent="yrJp2ZyePW3_RDwl9xaa-75" vertex="1">
          <mxGeometry x="180" width="60" height="40" as="geometry">
            <mxRectangle width="60" height="40" as="alternateBounds" />
          </mxGeometry>
        </mxCell>
        <mxCell id="yrJp2ZyePW3_RDwl9xaa-84" style="shape=partialRectangle;html=1;whiteSpace=wrap;connectable=0;strokeColor=inherit;overflow=hidden;fillColor=none;top=0;left=0;bottom=0;right=0;pointerEvents=1;fontSize=16;" parent="yrJp2ZyePW3_RDwl9xaa-75" vertex="1">
          <mxGeometry x="240" width="60" height="40" as="geometry">
            <mxRectangle width="60" height="40" as="alternateBounds" />
          </mxGeometry>
        </mxCell>
        <mxCell id="yrJp2ZyePW3_RDwl9xaa-87" style="shape=partialRectangle;html=1;whiteSpace=wrap;connectable=0;strokeColor=inherit;overflow=hidden;fillColor=none;top=0;left=0;bottom=0;right=0;pointerEvents=1;fontSize=16;" parent="yrJp2ZyePW3_RDwl9xaa-75" vertex="1">
          <mxGeometry x="300" width="60" height="40" as="geometry">
            <mxRectangle width="60" height="40" as="alternateBounds" />
          </mxGeometry>
        </mxCell>
        <mxCell id="yrJp2ZyePW3_RDwl9xaa-90" style="shape=partialRectangle;html=1;whiteSpace=wrap;connectable=0;strokeColor=inherit;overflow=hidden;fillColor=none;top=0;left=0;bottom=0;right=0;pointerEvents=1;fontSize=16;" parent="yrJp2ZyePW3_RDwl9xaa-75" vertex="1">
          <mxGeometry x="360" width="60" height="40" as="geometry">
            <mxRectangle width="60" height="40" as="alternateBounds" />
          </mxGeometry>
        </mxCell>
        <mxCell id="yrJp2ZyePW3_RDwl9xaa-93" style="shape=partialRectangle;html=1;whiteSpace=wrap;connectable=0;strokeColor=inherit;overflow=hidden;fillColor=none;top=0;left=0;bottom=0;right=0;pointerEvents=1;fontSize=16;" parent="yrJp2ZyePW3_RDwl9xaa-75" vertex="1">
          <mxGeometry x="420" width="60" height="40" as="geometry">
            <mxRectangle width="60" height="40" as="alternateBounds" />
          </mxGeometry>
        </mxCell>
        <mxCell id="yrJp2ZyePW3_RDwl9xaa-96" style="shape=partialRectangle;html=1;whiteSpace=wrap;connectable=0;strokeColor=inherit;overflow=hidden;fillColor=none;top=0;left=0;bottom=0;right=0;pointerEvents=1;fontSize=16;" parent="yrJp2ZyePW3_RDwl9xaa-75" vertex="1">
          <mxGeometry x="480" width="60" height="40" as="geometry">
            <mxRectangle width="60" height="40" as="alternateBounds" />
          </mxGeometry>
        </mxCell>
        <mxCell id="yrJp2ZyePW3_RDwl9xaa-99" value="2" style="shape=partialRectangle;html=1;whiteSpace=wrap;connectable=0;strokeColor=inherit;overflow=hidden;fillColor=none;top=0;left=0;bottom=0;right=0;pointerEvents=1;fontSize=16;" parent="yrJp2ZyePW3_RDwl9xaa-75" vertex="1">
          <mxGeometry x="540" width="60" height="40" as="geometry">
            <mxRectangle width="60" height="40" as="alternateBounds" />
          </mxGeometry>
        </mxCell>
        <mxCell id="yrJp2ZyePW3_RDwl9xaa-103" style="shape=tableRow;horizontal=0;startSize=0;swimlaneHead=0;swimlaneBody=0;strokeColor=inherit;top=0;left=0;bottom=0;right=0;collapsible=0;dropTarget=0;fillColor=none;points=[[0,0.5],[1,0.5]];portConstraint=eastwest;fontSize=16;" parent="yrJp2ZyePW3_RDwl9xaa-66" vertex="1">
          <mxGeometry y="120" width="600" height="40" as="geometry" />
        </mxCell>
        <mxCell id="yrJp2ZyePW3_RDwl9xaa-104" value="3" style="shape=partialRectangle;html=1;whiteSpace=wrap;connectable=0;strokeColor=inherit;overflow=hidden;fillColor=none;top=0;left=0;bottom=0;right=0;pointerEvents=1;fontSize=16;" parent="yrJp2ZyePW3_RDwl9xaa-103" vertex="1">
          <mxGeometry width="60" height="40" as="geometry">
            <mxRectangle width="60" height="40" as="alternateBounds" />
          </mxGeometry>
        </mxCell>
        <mxCell id="yrJp2ZyePW3_RDwl9xaa-105" style="shape=partialRectangle;html=1;whiteSpace=wrap;connectable=0;strokeColor=inherit;overflow=hidden;fillColor=none;top=0;left=0;bottom=0;right=0;pointerEvents=1;fontSize=16;" parent="yrJp2ZyePW3_RDwl9xaa-103" vertex="1">
          <mxGeometry x="60" width="60" height="40" as="geometry">
            <mxRectangle width="60" height="40" as="alternateBounds" />
          </mxGeometry>
        </mxCell>
        <mxCell id="yrJp2ZyePW3_RDwl9xaa-106" style="shape=partialRectangle;html=1;whiteSpace=wrap;connectable=0;strokeColor=inherit;overflow=hidden;fillColor=none;top=0;left=0;bottom=0;right=0;pointerEvents=1;fontSize=16;" parent="yrJp2ZyePW3_RDwl9xaa-103" vertex="1">
          <mxGeometry x="120" width="60" height="40" as="geometry">
            <mxRectangle width="60" height="40" as="alternateBounds" />
          </mxGeometry>
        </mxCell>
        <mxCell id="yrJp2ZyePW3_RDwl9xaa-107" style="shape=partialRectangle;html=1;whiteSpace=wrap;connectable=0;strokeColor=inherit;overflow=hidden;fillColor=none;top=0;left=0;bottom=0;right=0;pointerEvents=1;fontSize=16;" parent="yrJp2ZyePW3_RDwl9xaa-103" vertex="1">
          <mxGeometry x="180" width="60" height="40" as="geometry">
            <mxRectangle width="60" height="40" as="alternateBounds" />
          </mxGeometry>
        </mxCell>
        <mxCell id="yrJp2ZyePW3_RDwl9xaa-108" value="" style="shape=partialRectangle;html=1;whiteSpace=wrap;connectable=0;strokeColor=inherit;overflow=hidden;fillColor=none;top=0;left=0;bottom=0;right=0;pointerEvents=1;fontSize=16;" parent="yrJp2ZyePW3_RDwl9xaa-103" vertex="1">
          <mxGeometry x="240" width="60" height="40" as="geometry">
            <mxRectangle width="60" height="40" as="alternateBounds" />
          </mxGeometry>
        </mxCell>
        <mxCell id="yrJp2ZyePW3_RDwl9xaa-109" style="shape=partialRectangle;html=1;whiteSpace=wrap;connectable=0;strokeColor=inherit;overflow=hidden;fillColor=none;top=0;left=0;bottom=0;right=0;pointerEvents=1;fontSize=16;" parent="yrJp2ZyePW3_RDwl9xaa-103" vertex="1">
          <mxGeometry x="300" width="60" height="40" as="geometry">
            <mxRectangle width="60" height="40" as="alternateBounds" />
          </mxGeometry>
        </mxCell>
        <mxCell id="yrJp2ZyePW3_RDwl9xaa-110" value="" style="shape=partialRectangle;html=1;whiteSpace=wrap;connectable=0;strokeColor=inherit;overflow=hidden;fillColor=none;top=0;left=0;bottom=0;right=0;pointerEvents=1;fontSize=16;" parent="yrJp2ZyePW3_RDwl9xaa-103" vertex="1">
          <mxGeometry x="360" width="60" height="40" as="geometry">
            <mxRectangle width="60" height="40" as="alternateBounds" />
          </mxGeometry>
        </mxCell>
        <mxCell id="yrJp2ZyePW3_RDwl9xaa-111" style="shape=partialRectangle;html=1;whiteSpace=wrap;connectable=0;strokeColor=inherit;overflow=hidden;fillColor=none;top=0;left=0;bottom=0;right=0;pointerEvents=1;fontSize=16;" parent="yrJp2ZyePW3_RDwl9xaa-103" vertex="1">
          <mxGeometry x="420" width="60" height="40" as="geometry">
            <mxRectangle width="60" height="40" as="alternateBounds" />
          </mxGeometry>
        </mxCell>
        <mxCell id="yrJp2ZyePW3_RDwl9xaa-112" style="shape=partialRectangle;html=1;whiteSpace=wrap;connectable=0;strokeColor=inherit;overflow=hidden;fillColor=none;top=0;left=0;bottom=0;right=0;pointerEvents=1;fontSize=16;" parent="yrJp2ZyePW3_RDwl9xaa-103" vertex="1">
          <mxGeometry x="480" width="60" height="40" as="geometry">
            <mxRectangle width="60" height="40" as="alternateBounds" />
          </mxGeometry>
        </mxCell>
        <mxCell id="yrJp2ZyePW3_RDwl9xaa-113" value="3" style="shape=partialRectangle;html=1;whiteSpace=wrap;connectable=0;strokeColor=inherit;overflow=hidden;fillColor=none;top=0;left=0;bottom=0;right=0;pointerEvents=1;fontSize=16;" parent="yrJp2ZyePW3_RDwl9xaa-103" vertex="1">
          <mxGeometry x="540" width="60" height="40" as="geometry">
            <mxRectangle width="60" height="40" as="alternateBounds" />
          </mxGeometry>
        </mxCell>
        <mxCell id="yrJp2ZyePW3_RDwl9xaa-114" style="shape=tableRow;horizontal=0;startSize=0;swimlaneHead=0;swimlaneBody=0;strokeColor=inherit;top=0;left=0;bottom=0;right=0;collapsible=0;dropTarget=0;fillColor=none;points=[[0,0.5],[1,0.5]];portConstraint=eastwest;fontSize=16;" parent="yrJp2ZyePW3_RDwl9xaa-66" vertex="1">
          <mxGeometry y="160" width="600" height="40" as="geometry" />
        </mxCell>
        <mxCell id="yrJp2ZyePW3_RDwl9xaa-115" value="4" style="shape=partialRectangle;html=1;whiteSpace=wrap;connectable=0;strokeColor=inherit;overflow=hidden;fillColor=none;top=0;left=0;bottom=0;right=0;pointerEvents=1;fontSize=16;" parent="yrJp2ZyePW3_RDwl9xaa-114" vertex="1">
          <mxGeometry width="60" height="40" as="geometry">
            <mxRectangle width="60" height="40" as="alternateBounds" />
          </mxGeometry>
        </mxCell>
        <mxCell id="yrJp2ZyePW3_RDwl9xaa-116" style="shape=partialRectangle;html=1;whiteSpace=wrap;connectable=0;strokeColor=inherit;overflow=hidden;fillColor=none;top=0;left=0;bottom=0;right=0;pointerEvents=1;fontSize=16;" parent="yrJp2ZyePW3_RDwl9xaa-114" vertex="1">
          <mxGeometry x="60" width="60" height="40" as="geometry">
            <mxRectangle width="60" height="40" as="alternateBounds" />
          </mxGeometry>
        </mxCell>
        <mxCell id="yrJp2ZyePW3_RDwl9xaa-117" style="shape=partialRectangle;html=1;whiteSpace=wrap;connectable=0;strokeColor=inherit;overflow=hidden;fillColor=none;top=0;left=0;bottom=0;right=0;pointerEvents=1;fontSize=16;" parent="yrJp2ZyePW3_RDwl9xaa-114" vertex="1">
          <mxGeometry x="120" width="60" height="40" as="geometry">
            <mxRectangle width="60" height="40" as="alternateBounds" />
          </mxGeometry>
        </mxCell>
        <mxCell id="yrJp2ZyePW3_RDwl9xaa-118" value="" style="shape=partialRectangle;html=1;whiteSpace=wrap;connectable=0;strokeColor=inherit;overflow=hidden;fillColor=none;top=0;left=0;bottom=0;right=0;pointerEvents=1;fontSize=16;" parent="yrJp2ZyePW3_RDwl9xaa-114" vertex="1">
          <mxGeometry x="180" width="60" height="40" as="geometry">
            <mxRectangle width="60" height="40" as="alternateBounds" />
          </mxGeometry>
        </mxCell>
        <mxCell id="yrJp2ZyePW3_RDwl9xaa-119" value="O" style="shape=partialRectangle;html=1;whiteSpace=wrap;connectable=0;strokeColor=inherit;overflow=hidden;fillColor=none;top=0;left=0;bottom=0;right=0;pointerEvents=1;fontSize=16;" parent="yrJp2ZyePW3_RDwl9xaa-114" vertex="1">
          <mxGeometry x="240" width="60" height="40" as="geometry">
            <mxRectangle width="60" height="40" as="alternateBounds" />
          </mxGeometry>
        </mxCell>
        <mxCell id="yrJp2ZyePW3_RDwl9xaa-120" value="X" style="shape=partialRectangle;html=1;whiteSpace=wrap;connectable=0;strokeColor=inherit;overflow=hidden;fillColor=none;top=0;left=0;bottom=0;right=0;pointerEvents=1;fontSize=16;" parent="yrJp2ZyePW3_RDwl9xaa-114" vertex="1">
          <mxGeometry x="300" width="60" height="40" as="geometry">
            <mxRectangle width="60" height="40" as="alternateBounds" />
          </mxGeometry>
        </mxCell>
        <mxCell id="yrJp2ZyePW3_RDwl9xaa-121" value="" style="shape=partialRectangle;html=1;whiteSpace=wrap;connectable=0;strokeColor=inherit;overflow=hidden;fillColor=none;top=0;left=0;bottom=0;right=0;pointerEvents=1;fontSize=16;" parent="yrJp2ZyePW3_RDwl9xaa-114" vertex="1">
          <mxGeometry x="360" width="60" height="40" as="geometry">
            <mxRectangle width="60" height="40" as="alternateBounds" />
          </mxGeometry>
        </mxCell>
        <mxCell id="yrJp2ZyePW3_RDwl9xaa-122" style="shape=partialRectangle;html=1;whiteSpace=wrap;connectable=0;strokeColor=inherit;overflow=hidden;fillColor=none;top=0;left=0;bottom=0;right=0;pointerEvents=1;fontSize=16;" parent="yrJp2ZyePW3_RDwl9xaa-114" vertex="1">
          <mxGeometry x="420" width="60" height="40" as="geometry">
            <mxRectangle width="60" height="40" as="alternateBounds" />
          </mxGeometry>
        </mxCell>
        <mxCell id="yrJp2ZyePW3_RDwl9xaa-123" style="shape=partialRectangle;html=1;whiteSpace=wrap;connectable=0;strokeColor=inherit;overflow=hidden;fillColor=none;top=0;left=0;bottom=0;right=0;pointerEvents=1;fontSize=16;" parent="yrJp2ZyePW3_RDwl9xaa-114" vertex="1">
          <mxGeometry x="480" width="60" height="40" as="geometry">
            <mxRectangle width="60" height="40" as="alternateBounds" />
          </mxGeometry>
        </mxCell>
        <mxCell id="yrJp2ZyePW3_RDwl9xaa-124" value="4" style="shape=partialRectangle;html=1;whiteSpace=wrap;connectable=0;strokeColor=inherit;overflow=hidden;fillColor=none;top=0;left=0;bottom=0;right=0;pointerEvents=1;fontSize=16;" parent="yrJp2ZyePW3_RDwl9xaa-114" vertex="1">
          <mxGeometry x="540" width="60" height="40" as="geometry">
            <mxRectangle width="60" height="40" as="alternateBounds" />
          </mxGeometry>
        </mxCell>
        <mxCell id="yrJp2ZyePW3_RDwl9xaa-125" style="shape=tableRow;horizontal=0;startSize=0;swimlaneHead=0;swimlaneBody=0;strokeColor=inherit;top=0;left=0;bottom=0;right=0;collapsible=0;dropTarget=0;fillColor=none;points=[[0,0.5],[1,0.5]];portConstraint=eastwest;fontSize=16;" parent="yrJp2ZyePW3_RDwl9xaa-66" vertex="1">
          <mxGeometry y="200" width="600" height="40" as="geometry" />
        </mxCell>
        <mxCell id="yrJp2ZyePW3_RDwl9xaa-126" value="5" style="shape=partialRectangle;html=1;whiteSpace=wrap;connectable=0;strokeColor=inherit;overflow=hidden;fillColor=none;top=0;left=0;bottom=0;right=0;pointerEvents=1;fontSize=16;" parent="yrJp2ZyePW3_RDwl9xaa-125" vertex="1">
          <mxGeometry width="60" height="40" as="geometry">
            <mxRectangle width="60" height="40" as="alternateBounds" />
          </mxGeometry>
        </mxCell>
        <mxCell id="yrJp2ZyePW3_RDwl9xaa-127" style="shape=partialRectangle;html=1;whiteSpace=wrap;connectable=0;strokeColor=inherit;overflow=hidden;fillColor=none;top=0;left=0;bottom=0;right=0;pointerEvents=1;fontSize=16;" parent="yrJp2ZyePW3_RDwl9xaa-125" vertex="1">
          <mxGeometry x="60" width="60" height="40" as="geometry">
            <mxRectangle width="60" height="40" as="alternateBounds" />
          </mxGeometry>
        </mxCell>
        <mxCell id="yrJp2ZyePW3_RDwl9xaa-128" style="shape=partialRectangle;html=1;whiteSpace=wrap;connectable=0;strokeColor=inherit;overflow=hidden;fillColor=none;top=0;left=0;bottom=0;right=0;pointerEvents=1;fontSize=16;" parent="yrJp2ZyePW3_RDwl9xaa-125" vertex="1">
          <mxGeometry x="120" width="60" height="40" as="geometry">
            <mxRectangle width="60" height="40" as="alternateBounds" />
          </mxGeometry>
        </mxCell>
        <mxCell id="yrJp2ZyePW3_RDwl9xaa-129" style="shape=partialRectangle;html=1;whiteSpace=wrap;connectable=0;strokeColor=inherit;overflow=hidden;fillColor=none;top=0;left=0;bottom=0;right=0;pointerEvents=1;fontSize=16;" parent="yrJp2ZyePW3_RDwl9xaa-125" vertex="1">
          <mxGeometry x="180" width="60" height="40" as="geometry">
            <mxRectangle width="60" height="40" as="alternateBounds" />
          </mxGeometry>
        </mxCell>
        <mxCell id="yrJp2ZyePW3_RDwl9xaa-130" value="X" style="shape=partialRectangle;html=1;whiteSpace=wrap;connectable=0;strokeColor=inherit;overflow=hidden;fillColor=none;top=0;left=0;bottom=0;right=0;pointerEvents=1;fontSize=16;" parent="yrJp2ZyePW3_RDwl9xaa-125" vertex="1">
          <mxGeometry x="240" width="60" height="40" as="geometry">
            <mxRectangle width="60" height="40" as="alternateBounds" />
          </mxGeometry>
        </mxCell>
        <mxCell id="yrJp2ZyePW3_RDwl9xaa-131" value="O" style="shape=partialRectangle;html=1;whiteSpace=wrap;connectable=0;strokeColor=inherit;overflow=hidden;fillColor=none;top=0;left=0;bottom=0;right=0;pointerEvents=1;fontSize=16;" parent="yrJp2ZyePW3_RDwl9xaa-125" vertex="1">
          <mxGeometry x="300" width="60" height="40" as="geometry">
            <mxRectangle width="60" height="40" as="alternateBounds" />
          </mxGeometry>
        </mxCell>
        <mxCell id="yrJp2ZyePW3_RDwl9xaa-132" value="" style="shape=partialRectangle;html=1;whiteSpace=wrap;connectable=0;strokeColor=inherit;overflow=hidden;fillColor=none;top=0;left=0;bottom=0;right=0;pointerEvents=1;fontSize=16;" parent="yrJp2ZyePW3_RDwl9xaa-125" vertex="1">
          <mxGeometry x="360" width="60" height="40" as="geometry">
            <mxRectangle width="60" height="40" as="alternateBounds" />
          </mxGeometry>
        </mxCell>
        <mxCell id="yrJp2ZyePW3_RDwl9xaa-133" style="shape=partialRectangle;html=1;whiteSpace=wrap;connectable=0;strokeColor=inherit;overflow=hidden;fillColor=none;top=0;left=0;bottom=0;right=0;pointerEvents=1;fontSize=16;" parent="yrJp2ZyePW3_RDwl9xaa-125" vertex="1">
          <mxGeometry x="420" width="60" height="40" as="geometry">
            <mxRectangle width="60" height="40" as="alternateBounds" />
          </mxGeometry>
        </mxCell>
        <mxCell id="yrJp2ZyePW3_RDwl9xaa-134" style="shape=partialRectangle;html=1;whiteSpace=wrap;connectable=0;strokeColor=inherit;overflow=hidden;fillColor=none;top=0;left=0;bottom=0;right=0;pointerEvents=1;fontSize=16;" parent="yrJp2ZyePW3_RDwl9xaa-125" vertex="1">
          <mxGeometry x="480" width="60" height="40" as="geometry">
            <mxRectangle width="60" height="40" as="alternateBounds" />
          </mxGeometry>
        </mxCell>
        <mxCell id="yrJp2ZyePW3_RDwl9xaa-135" value="5" style="shape=partialRectangle;html=1;whiteSpace=wrap;connectable=0;strokeColor=inherit;overflow=hidden;fillColor=none;top=0;left=0;bottom=0;right=0;pointerEvents=1;fontSize=16;" parent="yrJp2ZyePW3_RDwl9xaa-125" vertex="1">
          <mxGeometry x="540" width="60" height="40" as="geometry">
            <mxRectangle width="60" height="40" as="alternateBounds" />
          </mxGeometry>
        </mxCell>
        <mxCell id="yrJp2ZyePW3_RDwl9xaa-136" style="shape=tableRow;horizontal=0;startSize=0;swimlaneHead=0;swimlaneBody=0;strokeColor=inherit;top=0;left=0;bottom=0;right=0;collapsible=0;dropTarget=0;fillColor=none;points=[[0,0.5],[1,0.5]];portConstraint=eastwest;fontSize=16;" parent="yrJp2ZyePW3_RDwl9xaa-66" vertex="1">
          <mxGeometry y="240" width="600" height="40" as="geometry" />
        </mxCell>
        <mxCell id="yrJp2ZyePW3_RDwl9xaa-137" value="6" style="shape=partialRectangle;html=1;whiteSpace=wrap;connectable=0;strokeColor=inherit;overflow=hidden;fillColor=none;top=0;left=0;bottom=0;right=0;pointerEvents=1;fontSize=16;" parent="yrJp2ZyePW3_RDwl9xaa-136" vertex="1">
          <mxGeometry width="60" height="40" as="geometry">
            <mxRectangle width="60" height="40" as="alternateBounds" />
          </mxGeometry>
        </mxCell>
        <mxCell id="yrJp2ZyePW3_RDwl9xaa-138" style="shape=partialRectangle;html=1;whiteSpace=wrap;connectable=0;strokeColor=inherit;overflow=hidden;fillColor=none;top=0;left=0;bottom=0;right=0;pointerEvents=1;fontSize=16;" parent="yrJp2ZyePW3_RDwl9xaa-136" vertex="1">
          <mxGeometry x="60" width="60" height="40" as="geometry">
            <mxRectangle width="60" height="40" as="alternateBounds" />
          </mxGeometry>
        </mxCell>
        <mxCell id="yrJp2ZyePW3_RDwl9xaa-139" style="shape=partialRectangle;html=1;whiteSpace=wrap;connectable=0;strokeColor=inherit;overflow=hidden;fillColor=none;top=0;left=0;bottom=0;right=0;pointerEvents=1;fontSize=16;" parent="yrJp2ZyePW3_RDwl9xaa-136" vertex="1">
          <mxGeometry x="120" width="60" height="40" as="geometry">
            <mxRectangle width="60" height="40" as="alternateBounds" />
          </mxGeometry>
        </mxCell>
        <mxCell id="yrJp2ZyePW3_RDwl9xaa-140" style="shape=partialRectangle;html=1;whiteSpace=wrap;connectable=0;strokeColor=inherit;overflow=hidden;fillColor=none;top=0;left=0;bottom=0;right=0;pointerEvents=1;fontSize=16;" parent="yrJp2ZyePW3_RDwl9xaa-136" vertex="1">
          <mxGeometry x="180" width="60" height="40" as="geometry">
            <mxRectangle width="60" height="40" as="alternateBounds" />
          </mxGeometry>
        </mxCell>
        <mxCell id="yrJp2ZyePW3_RDwl9xaa-141" value="" style="shape=partialRectangle;html=1;whiteSpace=wrap;connectable=0;strokeColor=inherit;overflow=hidden;fillColor=none;top=0;left=0;bottom=0;right=0;pointerEvents=1;fontSize=16;" parent="yrJp2ZyePW3_RDwl9xaa-136" vertex="1">
          <mxGeometry x="240" width="60" height="40" as="geometry">
            <mxRectangle width="60" height="40" as="alternateBounds" />
          </mxGeometry>
        </mxCell>
        <mxCell id="yrJp2ZyePW3_RDwl9xaa-142" value="" style="shape=partialRectangle;html=1;whiteSpace=wrap;connectable=0;strokeColor=inherit;overflow=hidden;fillColor=none;top=0;left=0;bottom=0;right=0;pointerEvents=1;fontSize=16;" parent="yrJp2ZyePW3_RDwl9xaa-136" vertex="1">
          <mxGeometry x="300" width="60" height="40" as="geometry">
            <mxRectangle width="60" height="40" as="alternateBounds" />
          </mxGeometry>
        </mxCell>
        <mxCell id="yrJp2ZyePW3_RDwl9xaa-143" value="" style="shape=partialRectangle;html=1;whiteSpace=wrap;connectable=0;strokeColor=inherit;overflow=hidden;fillColor=none;top=0;left=0;bottom=0;right=0;pointerEvents=1;fontSize=16;" parent="yrJp2ZyePW3_RDwl9xaa-136" vertex="1">
          <mxGeometry x="360" width="60" height="40" as="geometry">
            <mxRectangle width="60" height="40" as="alternateBounds" />
          </mxGeometry>
        </mxCell>
        <mxCell id="yrJp2ZyePW3_RDwl9xaa-144" value="" style="shape=partialRectangle;html=1;whiteSpace=wrap;connectable=0;strokeColor=inherit;overflow=hidden;fillColor=none;top=0;left=0;bottom=0;right=0;pointerEvents=1;fontSize=16;" parent="yrJp2ZyePW3_RDwl9xaa-136" vertex="1">
          <mxGeometry x="420" width="60" height="40" as="geometry">
            <mxRectangle width="60" height="40" as="alternateBounds" />
          </mxGeometry>
        </mxCell>
        <mxCell id="yrJp2ZyePW3_RDwl9xaa-145" style="shape=partialRectangle;html=1;whiteSpace=wrap;connectable=0;strokeColor=inherit;overflow=hidden;fillColor=none;top=0;left=0;bottom=0;right=0;pointerEvents=1;fontSize=16;" parent="yrJp2ZyePW3_RDwl9xaa-136" vertex="1">
          <mxGeometry x="480" width="60" height="40" as="geometry">
            <mxRectangle width="60" height="40" as="alternateBounds" />
          </mxGeometry>
        </mxCell>
        <mxCell id="yrJp2ZyePW3_RDwl9xaa-146" value="6" style="shape=partialRectangle;html=1;whiteSpace=wrap;connectable=0;strokeColor=inherit;overflow=hidden;fillColor=none;top=0;left=0;bottom=0;right=0;pointerEvents=1;fontSize=16;" parent="yrJp2ZyePW3_RDwl9xaa-136" vertex="1">
          <mxGeometry x="540" width="60" height="40" as="geometry">
            <mxRectangle width="60" height="40" as="alternateBounds" />
          </mxGeometry>
        </mxCell>
        <mxCell id="yrJp2ZyePW3_RDwl9xaa-147" style="shape=tableRow;horizontal=0;startSize=0;swimlaneHead=0;swimlaneBody=0;strokeColor=inherit;top=0;left=0;bottom=0;right=0;collapsible=0;dropTarget=0;fillColor=none;points=[[0,0.5],[1,0.5]];portConstraint=eastwest;fontSize=16;" parent="yrJp2ZyePW3_RDwl9xaa-66" vertex="1">
          <mxGeometry y="280" width="600" height="40" as="geometry" />
        </mxCell>
        <mxCell id="yrJp2ZyePW3_RDwl9xaa-148" value="7" style="shape=partialRectangle;html=1;whiteSpace=wrap;connectable=0;strokeColor=inherit;overflow=hidden;fillColor=none;top=0;left=0;bottom=0;right=0;pointerEvents=1;fontSize=16;" parent="yrJp2ZyePW3_RDwl9xaa-147" vertex="1">
          <mxGeometry width="60" height="40" as="geometry">
            <mxRectangle width="60" height="40" as="alternateBounds" />
          </mxGeometry>
        </mxCell>
        <mxCell id="yrJp2ZyePW3_RDwl9xaa-149" style="shape=partialRectangle;html=1;whiteSpace=wrap;connectable=0;strokeColor=inherit;overflow=hidden;fillColor=none;top=0;left=0;bottom=0;right=0;pointerEvents=1;fontSize=16;" parent="yrJp2ZyePW3_RDwl9xaa-147" vertex="1">
          <mxGeometry x="60" width="60" height="40" as="geometry">
            <mxRectangle width="60" height="40" as="alternateBounds" />
          </mxGeometry>
        </mxCell>
        <mxCell id="yrJp2ZyePW3_RDwl9xaa-150" style="shape=partialRectangle;html=1;whiteSpace=wrap;connectable=0;strokeColor=inherit;overflow=hidden;fillColor=none;top=0;left=0;bottom=0;right=0;pointerEvents=1;fontSize=16;" parent="yrJp2ZyePW3_RDwl9xaa-147" vertex="1">
          <mxGeometry x="120" width="60" height="40" as="geometry">
            <mxRectangle width="60" height="40" as="alternateBounds" />
          </mxGeometry>
        </mxCell>
        <mxCell id="yrJp2ZyePW3_RDwl9xaa-151" style="shape=partialRectangle;html=1;whiteSpace=wrap;connectable=0;strokeColor=inherit;overflow=hidden;fillColor=none;top=0;left=0;bottom=0;right=0;pointerEvents=1;fontSize=16;" parent="yrJp2ZyePW3_RDwl9xaa-147" vertex="1">
          <mxGeometry x="180" width="60" height="40" as="geometry">
            <mxRectangle width="60" height="40" as="alternateBounds" />
          </mxGeometry>
        </mxCell>
        <mxCell id="yrJp2ZyePW3_RDwl9xaa-152" style="shape=partialRectangle;html=1;whiteSpace=wrap;connectable=0;strokeColor=inherit;overflow=hidden;fillColor=none;top=0;left=0;bottom=0;right=0;pointerEvents=1;fontSize=16;" parent="yrJp2ZyePW3_RDwl9xaa-147" vertex="1">
          <mxGeometry x="240" width="60" height="40" as="geometry">
            <mxRectangle width="60" height="40" as="alternateBounds" />
          </mxGeometry>
        </mxCell>
        <mxCell id="yrJp2ZyePW3_RDwl9xaa-153" style="shape=partialRectangle;html=1;whiteSpace=wrap;connectable=0;strokeColor=inherit;overflow=hidden;fillColor=none;top=0;left=0;bottom=0;right=0;pointerEvents=1;fontSize=16;" parent="yrJp2ZyePW3_RDwl9xaa-147" vertex="1">
          <mxGeometry x="300" width="60" height="40" as="geometry">
            <mxRectangle width="60" height="40" as="alternateBounds" />
          </mxGeometry>
        </mxCell>
        <mxCell id="yrJp2ZyePW3_RDwl9xaa-154" style="shape=partialRectangle;html=1;whiteSpace=wrap;connectable=0;strokeColor=inherit;overflow=hidden;fillColor=none;top=0;left=0;bottom=0;right=0;pointerEvents=1;fontSize=16;" parent="yrJp2ZyePW3_RDwl9xaa-147" vertex="1">
          <mxGeometry x="360" width="60" height="40" as="geometry">
            <mxRectangle width="60" height="40" as="alternateBounds" />
          </mxGeometry>
        </mxCell>
        <mxCell id="yrJp2ZyePW3_RDwl9xaa-155" style="shape=partialRectangle;html=1;whiteSpace=wrap;connectable=0;strokeColor=inherit;overflow=hidden;fillColor=none;top=0;left=0;bottom=0;right=0;pointerEvents=1;fontSize=16;" parent="yrJp2ZyePW3_RDwl9xaa-147" vertex="1">
          <mxGeometry x="420" width="60" height="40" as="geometry">
            <mxRectangle width="60" height="40" as="alternateBounds" />
          </mxGeometry>
        </mxCell>
        <mxCell id="yrJp2ZyePW3_RDwl9xaa-156" style="shape=partialRectangle;html=1;whiteSpace=wrap;connectable=0;strokeColor=inherit;overflow=hidden;fillColor=none;top=0;left=0;bottom=0;right=0;pointerEvents=1;fontSize=16;" parent="yrJp2ZyePW3_RDwl9xaa-147" vertex="1">
          <mxGeometry x="480" width="60" height="40" as="geometry">
            <mxRectangle width="60" height="40" as="alternateBounds" />
          </mxGeometry>
        </mxCell>
        <mxCell id="yrJp2ZyePW3_RDwl9xaa-157" value="7" style="shape=partialRectangle;html=1;whiteSpace=wrap;connectable=0;strokeColor=inherit;overflow=hidden;fillColor=none;top=0;left=0;bottom=0;right=0;pointerEvents=1;fontSize=16;" parent="yrJp2ZyePW3_RDwl9xaa-147" vertex="1">
          <mxGeometry x="540" width="60" height="40" as="geometry">
            <mxRectangle width="60" height="40" as="alternateBounds" />
          </mxGeometry>
        </mxCell>
        <mxCell id="yrJp2ZyePW3_RDwl9xaa-158" style="shape=tableRow;horizontal=0;startSize=0;swimlaneHead=0;swimlaneBody=0;strokeColor=inherit;top=0;left=0;bottom=0;right=0;collapsible=0;dropTarget=0;fillColor=none;points=[[0,0.5],[1,0.5]];portConstraint=eastwest;fontSize=16;" parent="yrJp2ZyePW3_RDwl9xaa-66" vertex="1">
          <mxGeometry y="320" width="600" height="40" as="geometry" />
        </mxCell>
        <mxCell id="yrJp2ZyePW3_RDwl9xaa-159" value="8" style="shape=partialRectangle;html=1;whiteSpace=wrap;connectable=0;strokeColor=inherit;overflow=hidden;fillColor=none;top=0;left=0;bottom=0;right=0;pointerEvents=1;fontSize=16;" parent="yrJp2ZyePW3_RDwl9xaa-158" vertex="1">
          <mxGeometry width="60" height="40" as="geometry">
            <mxRectangle width="60" height="40" as="alternateBounds" />
          </mxGeometry>
        </mxCell>
        <mxCell id="yrJp2ZyePW3_RDwl9xaa-160" style="shape=partialRectangle;html=1;whiteSpace=wrap;connectable=0;strokeColor=inherit;overflow=hidden;fillColor=none;top=0;left=0;bottom=0;right=0;pointerEvents=1;fontSize=16;" parent="yrJp2ZyePW3_RDwl9xaa-158" vertex="1">
          <mxGeometry x="60" width="60" height="40" as="geometry">
            <mxRectangle width="60" height="40" as="alternateBounds" />
          </mxGeometry>
        </mxCell>
        <mxCell id="yrJp2ZyePW3_RDwl9xaa-161" style="shape=partialRectangle;html=1;whiteSpace=wrap;connectable=0;strokeColor=inherit;overflow=hidden;fillColor=none;top=0;left=0;bottom=0;right=0;pointerEvents=1;fontSize=16;" parent="yrJp2ZyePW3_RDwl9xaa-158" vertex="1">
          <mxGeometry x="120" width="60" height="40" as="geometry">
            <mxRectangle width="60" height="40" as="alternateBounds" />
          </mxGeometry>
        </mxCell>
        <mxCell id="yrJp2ZyePW3_RDwl9xaa-162" style="shape=partialRectangle;html=1;whiteSpace=wrap;connectable=0;strokeColor=inherit;overflow=hidden;fillColor=none;top=0;left=0;bottom=0;right=0;pointerEvents=1;fontSize=16;" parent="yrJp2ZyePW3_RDwl9xaa-158" vertex="1">
          <mxGeometry x="180" width="60" height="40" as="geometry">
            <mxRectangle width="60" height="40" as="alternateBounds" />
          </mxGeometry>
        </mxCell>
        <mxCell id="yrJp2ZyePW3_RDwl9xaa-163" style="shape=partialRectangle;html=1;whiteSpace=wrap;connectable=0;strokeColor=inherit;overflow=hidden;fillColor=none;top=0;left=0;bottom=0;right=0;pointerEvents=1;fontSize=16;" parent="yrJp2ZyePW3_RDwl9xaa-158" vertex="1">
          <mxGeometry x="240" width="60" height="40" as="geometry">
            <mxRectangle width="60" height="40" as="alternateBounds" />
          </mxGeometry>
        </mxCell>
        <mxCell id="yrJp2ZyePW3_RDwl9xaa-164" style="shape=partialRectangle;html=1;whiteSpace=wrap;connectable=0;strokeColor=inherit;overflow=hidden;fillColor=none;top=0;left=0;bottom=0;right=0;pointerEvents=1;fontSize=16;" parent="yrJp2ZyePW3_RDwl9xaa-158" vertex="1">
          <mxGeometry x="300" width="60" height="40" as="geometry">
            <mxRectangle width="60" height="40" as="alternateBounds" />
          </mxGeometry>
        </mxCell>
        <mxCell id="yrJp2ZyePW3_RDwl9xaa-165" style="shape=partialRectangle;html=1;whiteSpace=wrap;connectable=0;strokeColor=inherit;overflow=hidden;fillColor=none;top=0;left=0;bottom=0;right=0;pointerEvents=1;fontSize=16;" parent="yrJp2ZyePW3_RDwl9xaa-158" vertex="1">
          <mxGeometry x="360" width="60" height="40" as="geometry">
            <mxRectangle width="60" height="40" as="alternateBounds" />
          </mxGeometry>
        </mxCell>
        <mxCell id="yrJp2ZyePW3_RDwl9xaa-166" style="shape=partialRectangle;html=1;whiteSpace=wrap;connectable=0;strokeColor=inherit;overflow=hidden;fillColor=none;top=0;left=0;bottom=0;right=0;pointerEvents=1;fontSize=16;" parent="yrJp2ZyePW3_RDwl9xaa-158" vertex="1">
          <mxGeometry x="420" width="60" height="40" as="geometry">
            <mxRectangle width="60" height="40" as="alternateBounds" />
          </mxGeometry>
        </mxCell>
        <mxCell id="yrJp2ZyePW3_RDwl9xaa-167" style="shape=partialRectangle;html=1;whiteSpace=wrap;connectable=0;strokeColor=inherit;overflow=hidden;fillColor=none;top=0;left=0;bottom=0;right=0;pointerEvents=1;fontSize=16;" parent="yrJp2ZyePW3_RDwl9xaa-158" vertex="1">
          <mxGeometry x="480" width="60" height="40" as="geometry">
            <mxRectangle width="60" height="40" as="alternateBounds" />
          </mxGeometry>
        </mxCell>
        <mxCell id="yrJp2ZyePW3_RDwl9xaa-168" value="8" style="shape=partialRectangle;html=1;whiteSpace=wrap;connectable=0;strokeColor=inherit;overflow=hidden;fillColor=none;top=0;left=0;bottom=0;right=0;pointerEvents=1;fontSize=16;" parent="yrJp2ZyePW3_RDwl9xaa-158" vertex="1">
          <mxGeometry x="540" width="60" height="40" as="geometry">
            <mxRectangle width="60" height="40" as="alternateBounds" />
          </mxGeometry>
        </mxCell>
        <mxCell id="yrJp2ZyePW3_RDwl9xaa-169" style="shape=tableRow;horizontal=0;startSize=0;swimlaneHead=0;swimlaneBody=0;strokeColor=inherit;top=0;left=0;bottom=0;right=0;collapsible=0;dropTarget=0;fillColor=none;points=[[0,0.5],[1,0.5]];portConstraint=eastwest;fontSize=16;" parent="yrJp2ZyePW3_RDwl9xaa-66" vertex="1">
          <mxGeometry y="360" width="600" height="40" as="geometry" />
        </mxCell>
        <mxCell id="yrJp2ZyePW3_RDwl9xaa-170" style="shape=partialRectangle;html=1;whiteSpace=wrap;connectable=0;strokeColor=inherit;overflow=hidden;fillColor=none;top=0;left=0;bottom=0;right=0;pointerEvents=1;fontSize=16;" parent="yrJp2ZyePW3_RDwl9xaa-169" vertex="1">
          <mxGeometry width="60" height="40" as="geometry">
            <mxRectangle width="60" height="40" as="alternateBounds" />
          </mxGeometry>
        </mxCell>
        <mxCell id="yrJp2ZyePW3_RDwl9xaa-171" value="1" style="shape=partialRectangle;html=1;whiteSpace=wrap;connectable=0;strokeColor=inherit;overflow=hidden;fillColor=none;top=0;left=0;bottom=0;right=0;pointerEvents=1;fontSize=16;" parent="yrJp2ZyePW3_RDwl9xaa-169" vertex="1">
          <mxGeometry x="60" width="60" height="40" as="geometry">
            <mxRectangle width="60" height="40" as="alternateBounds" />
          </mxGeometry>
        </mxCell>
        <mxCell id="yrJp2ZyePW3_RDwl9xaa-172" value="2" style="shape=partialRectangle;html=1;whiteSpace=wrap;connectable=0;strokeColor=inherit;overflow=hidden;fillColor=none;top=0;left=0;bottom=0;right=0;pointerEvents=1;fontSize=16;" parent="yrJp2ZyePW3_RDwl9xaa-169" vertex="1">
          <mxGeometry x="120" width="60" height="40" as="geometry">
            <mxRectangle width="60" height="40" as="alternateBounds" />
          </mxGeometry>
        </mxCell>
        <mxCell id="yrJp2ZyePW3_RDwl9xaa-173" value="3" style="shape=partialRectangle;html=1;whiteSpace=wrap;connectable=0;strokeColor=inherit;overflow=hidden;fillColor=none;top=0;left=0;bottom=0;right=0;pointerEvents=1;fontSize=16;" parent="yrJp2ZyePW3_RDwl9xaa-169" vertex="1">
          <mxGeometry x="180" width="60" height="40" as="geometry">
            <mxRectangle width="60" height="40" as="alternateBounds" />
          </mxGeometry>
        </mxCell>
        <mxCell id="yrJp2ZyePW3_RDwl9xaa-174" value="4" style="shape=partialRectangle;html=1;whiteSpace=wrap;connectable=0;strokeColor=inherit;overflow=hidden;fillColor=none;top=0;left=0;bottom=0;right=0;pointerEvents=1;fontSize=16;" parent="yrJp2ZyePW3_RDwl9xaa-169" vertex="1">
          <mxGeometry x="240" width="60" height="40" as="geometry">
            <mxRectangle width="60" height="40" as="alternateBounds" />
          </mxGeometry>
        </mxCell>
        <mxCell id="yrJp2ZyePW3_RDwl9xaa-175" value="5" style="shape=partialRectangle;html=1;whiteSpace=wrap;connectable=0;strokeColor=inherit;overflow=hidden;fillColor=none;top=0;left=0;bottom=0;right=0;pointerEvents=1;fontSize=16;" parent="yrJp2ZyePW3_RDwl9xaa-169" vertex="1">
          <mxGeometry x="300" width="60" height="40" as="geometry">
            <mxRectangle width="60" height="40" as="alternateBounds" />
          </mxGeometry>
        </mxCell>
        <mxCell id="yrJp2ZyePW3_RDwl9xaa-176" value="6" style="shape=partialRectangle;html=1;whiteSpace=wrap;connectable=0;strokeColor=inherit;overflow=hidden;fillColor=none;top=0;left=0;bottom=0;right=0;pointerEvents=1;fontSize=16;" parent="yrJp2ZyePW3_RDwl9xaa-169" vertex="1">
          <mxGeometry x="360" width="60" height="40" as="geometry">
            <mxRectangle width="60" height="40" as="alternateBounds" />
          </mxGeometry>
        </mxCell>
        <mxCell id="yrJp2ZyePW3_RDwl9xaa-177" value="7" style="shape=partialRectangle;html=1;whiteSpace=wrap;connectable=0;strokeColor=inherit;overflow=hidden;fillColor=none;top=0;left=0;bottom=0;right=0;pointerEvents=1;fontSize=16;" parent="yrJp2ZyePW3_RDwl9xaa-169" vertex="1">
          <mxGeometry x="420" width="60" height="40" as="geometry">
            <mxRectangle width="60" height="40" as="alternateBounds" />
          </mxGeometry>
        </mxCell>
        <mxCell id="yrJp2ZyePW3_RDwl9xaa-178" value="8" style="shape=partialRectangle;html=1;whiteSpace=wrap;connectable=0;strokeColor=inherit;overflow=hidden;fillColor=none;top=0;left=0;bottom=0;right=0;pointerEvents=1;fontSize=16;" parent="yrJp2ZyePW3_RDwl9xaa-169" vertex="1">
          <mxGeometry x="480" width="60" height="40" as="geometry">
            <mxRectangle width="60" height="40" as="alternateBounds" />
          </mxGeometry>
        </mxCell>
        <mxCell id="yrJp2ZyePW3_RDwl9xaa-179" style="shape=partialRectangle;html=1;whiteSpace=wrap;connectable=0;strokeColor=inherit;overflow=hidden;fillColor=none;top=0;left=0;bottom=0;right=0;pointerEvents=1;fontSize=16;" parent="yrJp2ZyePW3_RDwl9xaa-169" vertex="1">
          <mxGeometry x="540" width="60" height="40" as="geometry">
            <mxRectangle width="60" height="40" as="alternateBounds" />
          </mxGeometry>
        </mxCell>
        <mxCell id="yrJp2ZyePW3_RDwl9xaa-191" value="X" style="text;html=1;align=center;verticalAlign=middle;whiteSpace=wrap;rounded=0;" parent="1" vertex="1">
          <mxGeometry x="-780" y="346.56" width="60" height="30" as="geometry" />
        </mxCell>
        <mxCell id="yrJp2ZyePW3_RDwl9xaa-192" value="" style="endArrow=classic;html=1;rounded=0;" parent="1" source="yrJp2ZyePW3_RDwl9xaa-191" edge="1">
          <mxGeometry width="50" height="50" relative="1" as="geometry">
            <mxPoint x="-260" y="490" as="sourcePoint" />
            <mxPoint x="-750" y="740" as="targetPoint" />
          </mxGeometry>
        </mxCell>
        <mxCell id="yrJp2ZyePW3_RDwl9xaa-195" style="edgeStyle=orthogonalEdgeStyle;rounded=0;orthogonalLoop=1;jettySize=auto;html=1;" parent="1" source="yrJp2ZyePW3_RDwl9xaa-193" edge="1">
          <mxGeometry relative="1" as="geometry">
            <mxPoint x="-115" y="316.25" as="targetPoint" />
          </mxGeometry>
        </mxCell>
        <mxCell id="yrJp2ZyePW3_RDwl9xaa-193" value="Y" style="text;html=1;align=center;verticalAlign=middle;resizable=0;points=[];autosize=1;strokeColor=none;fillColor=none;" parent="1" vertex="1">
          <mxGeometry x="-725" y="301.25" width="30" height="30" as="geometry" />
        </mxCell>
        <mxCell id="ilQH3FXLHyIzs1iSrpnD-1" value="1-1" style="text;html=1;align=left;verticalAlign=top;whiteSpace=wrap;rounded=0;fontStyle=3;horizontal=1;fontSize=11;labelBorderColor=none;labelBackgroundColor=#FFFFCC;fontColor=#000000;" vertex="1" parent="1">
          <mxGeometry x="-660" y="387.12" width="20" height="20.12" as="geometry" />
        </mxCell>
        <mxCell id="ilQH3FXLHyIzs1iSrpnD-3" value="1-2" style="text;html=1;align=left;verticalAlign=top;whiteSpace=wrap;rounded=0;fontStyle=3;horizontal=1;fontSize=11;labelBorderColor=none;labelBackgroundColor=#FFFFCC;fontColor=#000000;" vertex="1" parent="1">
          <mxGeometry x="-600" y="387.12" width="20" height="20.12" as="geometry" />
        </mxCell>
        <mxCell id="ilQH3FXLHyIzs1iSrpnD-4" value="1-3" style="text;html=1;align=left;verticalAlign=top;whiteSpace=wrap;rounded=0;fontStyle=3;horizontal=1;fontSize=11;labelBorderColor=none;labelBackgroundColor=#FFFFCC;fontColor=#000000;" vertex="1" parent="1">
          <mxGeometry x="-540" y="387.13" width="20" height="20.12" as="geometry" />
        </mxCell>
        <mxCell id="ilQH3FXLHyIzs1iSrpnD-5" value="1-4" style="text;html=1;align=left;verticalAlign=top;whiteSpace=wrap;rounded=0;fontStyle=3;horizontal=1;fontSize=11;labelBorderColor=none;labelBackgroundColor=#FFFFCC;fontColor=#000000;" vertex="1" parent="1">
          <mxGeometry x="-480" y="387.13" width="20" height="20.12" as="geometry" />
        </mxCell>
        <mxCell id="ilQH3FXLHyIzs1iSrpnD-6" value="1-7" style="text;html=1;align=left;verticalAlign=top;whiteSpace=wrap;rounded=0;fontStyle=3;horizontal=1;fontSize=11;labelBorderColor=none;labelBackgroundColor=#FFFFCC;fontColor=#000000;" vertex="1" parent="1">
          <mxGeometry x="-300" y="387.13" width="20" height="20.12" as="geometry" />
        </mxCell>
        <mxCell id="ilQH3FXLHyIzs1iSrpnD-7" value="1-8" style="text;html=1;align=left;verticalAlign=top;whiteSpace=wrap;rounded=0;fontStyle=3;horizontal=1;fontSize=11;labelBorderColor=none;labelBackgroundColor=#FFFFCC;fontColor=#000000;" vertex="1" parent="1">
          <mxGeometry x="-240" y="387.13" width="20" height="20.12" as="geometry" />
        </mxCell>
        <mxCell id="ilQH3FXLHyIzs1iSrpnD-8" value="1-5" style="text;html=1;align=left;verticalAlign=top;whiteSpace=wrap;rounded=0;fontStyle=3;horizontal=1;fontSize=11;labelBorderColor=none;labelBackgroundColor=#FFFFCC;fontColor=#000000;" vertex="1" parent="1">
          <mxGeometry x="-420" y="387.13" width="20" height="20.12" as="geometry" />
        </mxCell>
        <mxCell id="ilQH3FXLHyIzs1iSrpnD-9" value="1-6" style="text;html=1;align=left;verticalAlign=top;whiteSpace=wrap;rounded=0;fontStyle=3;horizontal=1;fontSize=11;labelBorderColor=none;labelBackgroundColor=#FFFFCC;fontColor=#000000;" vertex="1" parent="1">
          <mxGeometry x="-360" y="387.13" width="20" height="20.12" as="geometry" />
        </mxCell>
        <mxCell id="ilQH3FXLHyIzs1iSrpnD-10" value="2-1" style="text;html=1;align=left;verticalAlign=top;whiteSpace=wrap;rounded=0;fontStyle=3;horizontal=1;fontSize=11;labelBorderColor=none;labelBackgroundColor=#FFFFCC;fontColor=#000000;" vertex="1" parent="1">
          <mxGeometry x="-660" y="428" width="20" height="20.12" as="geometry" />
        </mxCell>
        <mxCell id="ilQH3FXLHyIzs1iSrpnD-11" value="2-2" style="text;html=1;align=left;verticalAlign=top;whiteSpace=wrap;rounded=0;fontStyle=3;horizontal=1;fontSize=11;labelBorderColor=none;labelBackgroundColor=#FFFFCC;fontColor=#000000;" vertex="1" parent="1">
          <mxGeometry x="-600" y="428" width="20" height="20.12" as="geometry" />
        </mxCell>
        <mxCell id="ilQH3FXLHyIzs1iSrpnD-12" value="2-3" style="text;html=1;align=left;verticalAlign=top;whiteSpace=wrap;rounded=0;fontStyle=3;horizontal=1;fontSize=11;labelBorderColor=none;labelBackgroundColor=#FFFFCC;fontColor=#000000;" vertex="1" parent="1">
          <mxGeometry x="-540" y="428.01" width="20" height="20.12" as="geometry" />
        </mxCell>
        <mxCell id="ilQH3FXLHyIzs1iSrpnD-13" value="2-4" style="text;html=1;align=left;verticalAlign=top;whiteSpace=wrap;rounded=0;fontStyle=3;horizontal=1;fontSize=11;labelBorderColor=none;labelBackgroundColor=#FFFFCC;fontColor=#000000;" vertex="1" parent="1">
          <mxGeometry x="-480" y="428.01" width="20" height="20.12" as="geometry" />
        </mxCell>
        <mxCell id="ilQH3FXLHyIzs1iSrpnD-14" value="2-7" style="text;html=1;align=left;verticalAlign=top;whiteSpace=wrap;rounded=0;fontStyle=3;horizontal=1;fontSize=11;labelBorderColor=none;labelBackgroundColor=#FFFFCC;fontColor=#000000;" vertex="1" parent="1">
          <mxGeometry x="-300" y="428.01" width="20" height="20.12" as="geometry" />
        </mxCell>
        <mxCell id="ilQH3FXLHyIzs1iSrpnD-15" value="2-8" style="text;html=1;align=left;verticalAlign=top;whiteSpace=wrap;rounded=0;fontStyle=3;horizontal=1;fontSize=11;labelBorderColor=none;labelBackgroundColor=#FFFFCC;fontColor=#000000;" vertex="1" parent="1">
          <mxGeometry x="-240" y="428.01" width="20" height="20.12" as="geometry" />
        </mxCell>
        <mxCell id="ilQH3FXLHyIzs1iSrpnD-16" value="2-5" style="text;html=1;align=left;verticalAlign=top;whiteSpace=wrap;rounded=0;fontStyle=3;horizontal=1;fontSize=11;labelBorderColor=none;labelBackgroundColor=#FFFFCC;fontColor=#000000;" vertex="1" parent="1">
          <mxGeometry x="-420" y="428.01" width="20" height="20.12" as="geometry" />
        </mxCell>
        <mxCell id="ilQH3FXLHyIzs1iSrpnD-17" value="2-6" style="text;html=1;align=left;verticalAlign=top;whiteSpace=wrap;rounded=0;fontStyle=3;horizontal=1;fontSize=11;labelBorderColor=none;labelBackgroundColor=#FFFFCC;fontColor=#000000;" vertex="1" parent="1">
          <mxGeometry x="-360" y="428.01" width="20" height="20.12" as="geometry" />
        </mxCell>
        <mxCell id="ilQH3FXLHyIzs1iSrpnD-18" value="3-1" style="text;html=1;align=left;verticalAlign=top;whiteSpace=wrap;rounded=0;fontStyle=3;horizontal=1;fontSize=11;labelBorderColor=none;labelBackgroundColor=#FFFFCC;fontColor=#000000;" vertex="1" parent="1">
          <mxGeometry x="-660" y="470" width="20" height="20.12" as="geometry" />
        </mxCell>
        <mxCell id="ilQH3FXLHyIzs1iSrpnD-19" value="3-2" style="text;html=1;align=left;verticalAlign=top;whiteSpace=wrap;rounded=0;fontStyle=3;horizontal=1;fontSize=11;labelBorderColor=none;labelBackgroundColor=#FFFFCC;fontColor=#000000;" vertex="1" parent="1">
          <mxGeometry x="-600" y="470" width="20" height="20.12" as="geometry" />
        </mxCell>
        <mxCell id="ilQH3FXLHyIzs1iSrpnD-20" value="3-3" style="text;html=1;align=left;verticalAlign=top;whiteSpace=wrap;rounded=0;fontStyle=3;horizontal=1;fontSize=11;labelBorderColor=none;labelBackgroundColor=#FFFFCC;fontColor=#000000;" vertex="1" parent="1">
          <mxGeometry x="-540" y="470.01" width="20" height="20.12" as="geometry" />
        </mxCell>
        <mxCell id="ilQH3FXLHyIzs1iSrpnD-21" value="3-4" style="text;html=1;align=left;verticalAlign=top;whiteSpace=wrap;rounded=0;fontStyle=3;horizontal=1;fontSize=11;labelBorderColor=none;labelBackgroundColor=#FFFFCC;fontColor=#000000;" vertex="1" parent="1">
          <mxGeometry x="-480" y="470.01" width="20" height="20.12" as="geometry" />
        </mxCell>
        <mxCell id="ilQH3FXLHyIzs1iSrpnD-22" value="3-7" style="text;html=1;align=left;verticalAlign=top;whiteSpace=wrap;rounded=0;fontStyle=3;horizontal=1;fontSize=11;labelBorderColor=none;labelBackgroundColor=#FFFFCC;fontColor=#000000;" vertex="1" parent="1">
          <mxGeometry x="-300" y="470.01" width="20" height="20.12" as="geometry" />
        </mxCell>
        <mxCell id="ilQH3FXLHyIzs1iSrpnD-23" value="3-8" style="text;html=1;align=left;verticalAlign=top;whiteSpace=wrap;rounded=0;fontStyle=3;horizontal=1;fontSize=11;labelBorderColor=none;labelBackgroundColor=#FFFFCC;fontColor=#000000;" vertex="1" parent="1">
          <mxGeometry x="-240" y="470.01" width="20" height="20.12" as="geometry" />
        </mxCell>
        <mxCell id="ilQH3FXLHyIzs1iSrpnD-24" value="3-5" style="text;html=1;align=left;verticalAlign=top;whiteSpace=wrap;rounded=0;fontStyle=3;horizontal=1;fontSize=11;labelBorderColor=none;labelBackgroundColor=#FFFFCC;fontColor=#000000;" vertex="1" parent="1">
          <mxGeometry x="-420" y="470.01" width="20" height="20.12" as="geometry" />
        </mxCell>
        <mxCell id="ilQH3FXLHyIzs1iSrpnD-25" value="3-6" style="text;html=1;align=left;verticalAlign=top;whiteSpace=wrap;rounded=0;fontStyle=3;horizontal=1;fontSize=11;labelBorderColor=none;labelBackgroundColor=#FFFFCC;fontColor=#000000;" vertex="1" parent="1">
          <mxGeometry x="-360" y="470.01" width="20" height="20.12" as="geometry" />
        </mxCell>
        <mxCell id="ilQH3FXLHyIzs1iSrpnD-26" value="4-1" style="text;html=1;align=left;verticalAlign=top;whiteSpace=wrap;rounded=0;fontStyle=3;horizontal=1;fontSize=11;labelBorderColor=none;labelBackgroundColor=#FFFFCC;fontColor=#000000;" vertex="1" parent="1">
          <mxGeometry x="-660" y="510" width="20" height="20.12" as="geometry" />
        </mxCell>
        <mxCell id="ilQH3FXLHyIzs1iSrpnD-27" value="4-2" style="text;html=1;align=left;verticalAlign=top;whiteSpace=wrap;rounded=0;fontStyle=3;horizontal=1;fontSize=11;labelBorderColor=none;labelBackgroundColor=#FFFFCC;fontColor=#000000;" vertex="1" parent="1">
          <mxGeometry x="-600" y="510" width="20" height="20.12" as="geometry" />
        </mxCell>
        <mxCell id="ilQH3FXLHyIzs1iSrpnD-28" value="4-3" style="text;html=1;align=left;verticalAlign=top;whiteSpace=wrap;rounded=0;fontStyle=3;horizontal=1;fontSize=11;labelBorderColor=none;labelBackgroundColor=#FFFFCC;fontColor=#000000;" vertex="1" parent="1">
          <mxGeometry x="-540" y="510.01" width="20" height="20.12" as="geometry" />
        </mxCell>
        <mxCell id="ilQH3FXLHyIzs1iSrpnD-29" value="4-4" style="text;html=1;align=left;verticalAlign=top;whiteSpace=wrap;rounded=0;fontStyle=3;horizontal=1;fontSize=11;labelBorderColor=none;labelBackgroundColor=#FFFFCC;fontColor=#000000;" vertex="1" parent="1">
          <mxGeometry x="-480" y="510.01" width="20" height="20.12" as="geometry" />
        </mxCell>
        <mxCell id="ilQH3FXLHyIzs1iSrpnD-30" value="4-7" style="text;html=1;align=left;verticalAlign=top;whiteSpace=wrap;rounded=0;fontStyle=3;horizontal=1;fontSize=11;labelBorderColor=none;labelBackgroundColor=#FFFFCC;fontColor=#000000;" vertex="1" parent="1">
          <mxGeometry x="-300" y="510.01" width="20" height="20.12" as="geometry" />
        </mxCell>
        <mxCell id="ilQH3FXLHyIzs1iSrpnD-31" value="4-8" style="text;html=1;align=left;verticalAlign=top;whiteSpace=wrap;rounded=0;fontStyle=3;horizontal=1;fontSize=11;labelBorderColor=none;labelBackgroundColor=#FFFFCC;fontColor=#000000;" vertex="1" parent="1">
          <mxGeometry x="-240" y="510.01" width="20" height="20.12" as="geometry" />
        </mxCell>
        <mxCell id="ilQH3FXLHyIzs1iSrpnD-32" value="4-5" style="text;html=1;align=left;verticalAlign=top;whiteSpace=wrap;rounded=0;fontStyle=3;horizontal=1;fontSize=11;labelBorderColor=none;labelBackgroundColor=#FFFFCC;fontColor=#000000;" vertex="1" parent="1">
          <mxGeometry x="-420" y="510.01" width="20" height="20.12" as="geometry" />
        </mxCell>
        <mxCell id="ilQH3FXLHyIzs1iSrpnD-33" value="4-6" style="text;html=1;align=left;verticalAlign=top;whiteSpace=wrap;rounded=0;fontStyle=3;horizontal=1;fontSize=11;labelBorderColor=none;labelBackgroundColor=#FFFFCC;fontColor=#000000;" vertex="1" parent="1">
          <mxGeometry x="-360" y="510.01" width="20" height="20.12" as="geometry" />
        </mxCell>
        <mxCell id="ilQH3FXLHyIzs1iSrpnD-34" value="5-1" style="text;html=1;align=left;verticalAlign=top;whiteSpace=wrap;rounded=0;fontStyle=3;horizontal=1;fontSize=11;labelBorderColor=none;labelBackgroundColor=#FFFFCC;fontColor=#000000;" vertex="1" parent="1">
          <mxGeometry x="-660" y="550" width="20" height="20.12" as="geometry" />
        </mxCell>
        <mxCell id="ilQH3FXLHyIzs1iSrpnD-35" value="5-2" style="text;html=1;align=left;verticalAlign=top;whiteSpace=wrap;rounded=0;fontStyle=3;horizontal=1;fontSize=11;labelBorderColor=none;labelBackgroundColor=#FFFFCC;fontColor=#000000;" vertex="1" parent="1">
          <mxGeometry x="-600" y="550" width="20" height="20.12" as="geometry" />
        </mxCell>
        <mxCell id="ilQH3FXLHyIzs1iSrpnD-36" value="5-3" style="text;html=1;align=left;verticalAlign=top;whiteSpace=wrap;rounded=0;fontStyle=3;horizontal=1;fontSize=11;labelBorderColor=none;labelBackgroundColor=#FFFFCC;fontColor=#000000;" vertex="1" parent="1">
          <mxGeometry x="-540" y="550.01" width="20" height="20.12" as="geometry" />
        </mxCell>
        <mxCell id="ilQH3FXLHyIzs1iSrpnD-37" value="5-4" style="text;html=1;align=left;verticalAlign=top;whiteSpace=wrap;rounded=0;fontStyle=3;horizontal=1;fontSize=11;labelBorderColor=none;labelBackgroundColor=#FFFFCC;fontColor=#000000;" vertex="1" parent="1">
          <mxGeometry x="-480" y="550.01" width="20" height="20.12" as="geometry" />
        </mxCell>
        <mxCell id="ilQH3FXLHyIzs1iSrpnD-38" value="5-7" style="text;html=1;align=left;verticalAlign=top;whiteSpace=wrap;rounded=0;fontStyle=3;horizontal=1;fontSize=11;labelBorderColor=none;labelBackgroundColor=#FFFFCC;fontColor=#000000;" vertex="1" parent="1">
          <mxGeometry x="-300" y="550.01" width="20" height="20.12" as="geometry" />
        </mxCell>
        <mxCell id="ilQH3FXLHyIzs1iSrpnD-39" value="5-8" style="text;html=1;align=left;verticalAlign=top;whiteSpace=wrap;rounded=0;fontStyle=3;horizontal=1;fontSize=11;labelBorderColor=none;labelBackgroundColor=#FFFFCC;fontColor=#000000;" vertex="1" parent="1">
          <mxGeometry x="-240" y="550.01" width="20" height="20.12" as="geometry" />
        </mxCell>
        <mxCell id="ilQH3FXLHyIzs1iSrpnD-40" value="5-5" style="text;html=1;align=left;verticalAlign=top;whiteSpace=wrap;rounded=0;fontStyle=3;horizontal=1;fontSize=11;labelBorderColor=none;labelBackgroundColor=#FFFFCC;fontColor=#000000;" vertex="1" parent="1">
          <mxGeometry x="-420" y="550.01" width="20" height="20.12" as="geometry" />
        </mxCell>
        <mxCell id="ilQH3FXLHyIzs1iSrpnD-41" value="5-6" style="text;html=1;align=left;verticalAlign=top;whiteSpace=wrap;rounded=0;fontStyle=3;horizontal=1;fontSize=11;labelBorderColor=none;labelBackgroundColor=#FFFFCC;fontColor=#000000;" vertex="1" parent="1">
          <mxGeometry x="-360" y="550.01" width="20" height="20.12" as="geometry" />
        </mxCell>
        <mxCell id="ilQH3FXLHyIzs1iSrpnD-42" value="6-1" style="text;html=1;align=left;verticalAlign=top;whiteSpace=wrap;rounded=0;fontStyle=3;horizontal=1;fontSize=11;labelBorderColor=none;labelBackgroundColor=#FFFFCC;fontColor=#000000;" vertex="1" parent="1">
          <mxGeometry x="-660" y="590" width="20" height="20.12" as="geometry" />
        </mxCell>
        <mxCell id="ilQH3FXLHyIzs1iSrpnD-43" value="6-2" style="text;html=1;align=left;verticalAlign=top;whiteSpace=wrap;rounded=0;fontStyle=3;horizontal=1;fontSize=11;labelBorderColor=none;labelBackgroundColor=#FFFFCC;fontColor=#000000;" vertex="1" parent="1">
          <mxGeometry x="-600" y="590" width="20" height="20.12" as="geometry" />
        </mxCell>
        <mxCell id="ilQH3FXLHyIzs1iSrpnD-44" value="6-3" style="text;html=1;align=left;verticalAlign=top;whiteSpace=wrap;rounded=0;fontStyle=3;horizontal=1;fontSize=11;labelBorderColor=none;labelBackgroundColor=#FFFFCC;fontColor=#000000;" vertex="1" parent="1">
          <mxGeometry x="-540" y="590.01" width="20" height="20.12" as="geometry" />
        </mxCell>
        <mxCell id="ilQH3FXLHyIzs1iSrpnD-45" value="6-4" style="text;html=1;align=left;verticalAlign=top;whiteSpace=wrap;rounded=0;fontStyle=3;horizontal=1;fontSize=11;labelBorderColor=none;labelBackgroundColor=#FFFFCC;fontColor=#000000;" vertex="1" parent="1">
          <mxGeometry x="-480" y="590.01" width="20" height="20.12" as="geometry" />
        </mxCell>
        <mxCell id="ilQH3FXLHyIzs1iSrpnD-46" value="6-7" style="text;html=1;align=left;verticalAlign=top;whiteSpace=wrap;rounded=0;fontStyle=3;horizontal=1;fontSize=11;labelBorderColor=none;labelBackgroundColor=#FFFFCC;fontColor=#000000;" vertex="1" parent="1">
          <mxGeometry x="-300" y="590.01" width="20" height="20.12" as="geometry" />
        </mxCell>
        <mxCell id="ilQH3FXLHyIzs1iSrpnD-47" value="6-8" style="text;html=1;align=left;verticalAlign=top;whiteSpace=wrap;rounded=0;fontStyle=3;horizontal=1;fontSize=11;labelBorderColor=none;labelBackgroundColor=#FFFFCC;fontColor=#000000;" vertex="1" parent="1">
          <mxGeometry x="-240" y="590.01" width="20" height="20.12" as="geometry" />
        </mxCell>
        <mxCell id="ilQH3FXLHyIzs1iSrpnD-48" value="6-5" style="text;html=1;align=left;verticalAlign=top;whiteSpace=wrap;rounded=0;fontStyle=3;horizontal=1;fontSize=11;labelBorderColor=none;labelBackgroundColor=#FFFFCC;fontColor=#000000;" vertex="1" parent="1">
          <mxGeometry x="-420" y="590.01" width="20" height="20.12" as="geometry" />
        </mxCell>
        <mxCell id="ilQH3FXLHyIzs1iSrpnD-49" value="6-6" style="text;html=1;align=left;verticalAlign=top;whiteSpace=wrap;rounded=0;fontStyle=3;horizontal=1;fontSize=11;labelBorderColor=none;labelBackgroundColor=#FFFFCC;fontColor=#000000;" vertex="1" parent="1">
          <mxGeometry x="-360" y="590.01" width="20" height="20.12" as="geometry" />
        </mxCell>
        <mxCell id="ilQH3FXLHyIzs1iSrpnD-50" value="7-1" style="text;html=1;align=left;verticalAlign=top;whiteSpace=wrap;rounded=0;fontStyle=3;horizontal=1;fontSize=11;labelBorderColor=none;labelBackgroundColor=#FFFFCC;fontColor=#000000;" vertex="1" parent="1">
          <mxGeometry x="-660" y="629.87" width="20" height="20.12" as="geometry" />
        </mxCell>
        <mxCell id="ilQH3FXLHyIzs1iSrpnD-51" value="7-2" style="text;html=1;align=left;verticalAlign=top;whiteSpace=wrap;rounded=0;fontStyle=3;horizontal=1;fontSize=11;labelBorderColor=none;labelBackgroundColor=#FFFFCC;fontColor=#000000;" vertex="1" parent="1">
          <mxGeometry x="-600" y="629.87" width="20" height="20.12" as="geometry" />
        </mxCell>
        <mxCell id="ilQH3FXLHyIzs1iSrpnD-52" value="7-3" style="text;html=1;align=left;verticalAlign=top;whiteSpace=wrap;rounded=0;fontStyle=3;horizontal=1;fontSize=11;labelBorderColor=none;labelBackgroundColor=#FFFFCC;fontColor=#000000;" vertex="1" parent="1">
          <mxGeometry x="-540" y="629.88" width="20" height="20.12" as="geometry" />
        </mxCell>
        <mxCell id="ilQH3FXLHyIzs1iSrpnD-53" value="7-4" style="text;html=1;align=left;verticalAlign=top;whiteSpace=wrap;rounded=0;fontStyle=3;horizontal=1;fontSize=11;labelBorderColor=none;labelBackgroundColor=#FFFFCC;fontColor=#000000;" vertex="1" parent="1">
          <mxGeometry x="-480" y="629.88" width="20" height="20.12" as="geometry" />
        </mxCell>
        <mxCell id="ilQH3FXLHyIzs1iSrpnD-54" value="7-7" style="text;html=1;align=left;verticalAlign=top;whiteSpace=wrap;rounded=0;fontStyle=3;horizontal=1;fontSize=11;labelBorderColor=none;labelBackgroundColor=#FFFFCC;fontColor=#000000;" vertex="1" parent="1">
          <mxGeometry x="-300" y="629.88" width="20" height="20.12" as="geometry" />
        </mxCell>
        <mxCell id="ilQH3FXLHyIzs1iSrpnD-55" value="7-8" style="text;html=1;align=left;verticalAlign=top;whiteSpace=wrap;rounded=0;fontStyle=3;horizontal=1;fontSize=11;labelBorderColor=none;labelBackgroundColor=#FFFFCC;fontColor=#000000;" vertex="1" parent="1">
          <mxGeometry x="-240" y="629.88" width="20" height="20.12" as="geometry" />
        </mxCell>
        <mxCell id="ilQH3FXLHyIzs1iSrpnD-56" value="7-5" style="text;html=1;align=left;verticalAlign=top;whiteSpace=wrap;rounded=0;fontStyle=3;horizontal=1;fontSize=11;labelBorderColor=none;labelBackgroundColor=#FFFFCC;fontColor=#000000;" vertex="1" parent="1">
          <mxGeometry x="-420" y="629.88" width="20" height="20.12" as="geometry" />
        </mxCell>
        <mxCell id="ilQH3FXLHyIzs1iSrpnD-57" value="7-6" style="text;html=1;align=left;verticalAlign=top;whiteSpace=wrap;rounded=0;fontStyle=3;horizontal=1;fontSize=11;labelBorderColor=none;labelBackgroundColor=#FFFFCC;fontColor=#000000;" vertex="1" parent="1">
          <mxGeometry x="-360" y="629.88" width="20" height="20.12" as="geometry" />
        </mxCell>
        <mxCell id="ilQH3FXLHyIzs1iSrpnD-58" value="8-1" style="text;html=1;align=left;verticalAlign=top;whiteSpace=wrap;rounded=0;fontStyle=3;horizontal=1;fontSize=11;labelBorderColor=none;labelBackgroundColor=#FFFFCC;fontColor=#000000;" vertex="1" parent="1">
          <mxGeometry x="-660" y="670" width="20" height="20.12" as="geometry" />
        </mxCell>
        <mxCell id="ilQH3FXLHyIzs1iSrpnD-59" value="8-2" style="text;html=1;align=left;verticalAlign=top;whiteSpace=wrap;rounded=0;fontStyle=3;horizontal=1;fontSize=11;labelBorderColor=none;labelBackgroundColor=#FFFFCC;fontColor=#000000;" vertex="1" parent="1">
          <mxGeometry x="-600" y="670" width="20" height="20.12" as="geometry" />
        </mxCell>
        <mxCell id="ilQH3FXLHyIzs1iSrpnD-60" value="8-3" style="text;html=1;align=left;verticalAlign=top;whiteSpace=wrap;rounded=0;fontStyle=3;horizontal=1;fontSize=11;labelBorderColor=none;labelBackgroundColor=#FFFFCC;fontColor=#000000;" vertex="1" parent="1">
          <mxGeometry x="-540" y="670.01" width="20" height="20.12" as="geometry" />
        </mxCell>
        <mxCell id="ilQH3FXLHyIzs1iSrpnD-61" value="8-4" style="text;html=1;align=left;verticalAlign=top;whiteSpace=wrap;rounded=0;fontStyle=3;horizontal=1;fontSize=11;labelBorderColor=none;labelBackgroundColor=#FFFFCC;fontColor=#000000;" vertex="1" parent="1">
          <mxGeometry x="-480" y="670.01" width="20" height="20.12" as="geometry" />
        </mxCell>
        <mxCell id="ilQH3FXLHyIzs1iSrpnD-62" value="8-7" style="text;html=1;align=left;verticalAlign=top;whiteSpace=wrap;rounded=0;fontStyle=3;horizontal=1;fontSize=11;labelBorderColor=none;labelBackgroundColor=#FFFFCC;fontColor=#000000;" vertex="1" parent="1">
          <mxGeometry x="-300" y="670.01" width="20" height="20.12" as="geometry" />
        </mxCell>
        <mxCell id="ilQH3FXLHyIzs1iSrpnD-63" value="8-8" style="text;html=1;align=left;verticalAlign=top;whiteSpace=wrap;rounded=0;fontStyle=3;horizontal=1;fontSize=11;labelBorderColor=none;labelBackgroundColor=#FFFFCC;fontColor=#000000;" vertex="1" parent="1">
          <mxGeometry x="-240" y="670.01" width="20" height="20.12" as="geometry" />
        </mxCell>
        <mxCell id="ilQH3FXLHyIzs1iSrpnD-64" value="8-5" style="text;html=1;align=left;verticalAlign=top;whiteSpace=wrap;rounded=0;fontStyle=3;horizontal=1;fontSize=11;labelBorderColor=none;labelBackgroundColor=#FFFFCC;fontColor=#000000;" vertex="1" parent="1">
          <mxGeometry x="-420" y="670.01" width="20" height="20.12" as="geometry" />
        </mxCell>
        <mxCell id="ilQH3FXLHyIzs1iSrpnD-65" value="8-6" style="text;html=1;align=left;verticalAlign=top;whiteSpace=wrap;rounded=0;fontStyle=3;horizontal=1;fontSize=11;labelBorderColor=none;labelBackgroundColor=#FFFFCC;fontColor=#000000;" vertex="1" parent="1">
          <mxGeometry x="-360" y="670.01" width="20" height="20.12" as="geometry" />
        </mxCell>
        <mxCell id="ilQH3FXLHyIzs1iSrpnD-69" style="edgeStyle=orthogonalEdgeStyle;rounded=0;orthogonalLoop=1;jettySize=auto;html=1;exitX=0.5;exitY=1;exitDx=0;exitDy=0;entryX=0.5;entryY=1;entryDx=0;entryDy=0;fillColor=#f0a30a;strokeColor=#BD7000;" edge="1" parent="1" source="ilQH3FXLHyIzs1iSrpnD-67" target="ilQH3FXLHyIzs1iSrpnD-97">
          <mxGeometry relative="1" as="geometry">
            <mxPoint x="760" y="1310" as="targetPoint" />
            <Array as="points">
              <mxPoint x="288" y="1560" />
              <mxPoint x="380" y="1560" />
              <mxPoint x="380" y="1620" />
              <mxPoint x="825" y="1620" />
            </Array>
          </mxGeometry>
        </mxCell>
        <mxCell id="ilQH3FXLHyIzs1iSrpnD-70" style="edgeStyle=orthogonalEdgeStyle;rounded=0;orthogonalLoop=1;jettySize=auto;html=1;exitX=0;exitY=0.5;exitDx=0;exitDy=0;entryX=0.5;entryY=0;entryDx=0;entryDy=0;fillColor=#60a917;strokeColor=#2D7600;" edge="1" parent="1" source="ilQH3FXLHyIzs1iSrpnD-67" target="yrJp2ZyePW3_RDwl9xaa-19">
          <mxGeometry relative="1" as="geometry">
            <Array as="points">
              <mxPoint x="220" y="1490" />
              <mxPoint x="220" y="1565" />
              <mxPoint x="270" y="1565" />
            </Array>
          </mxGeometry>
        </mxCell>
        <mxCell id="ilQH3FXLHyIzs1iSrpnD-67" value="tiene ficha propia?" style="rhombus;whiteSpace=wrap;html=1;" vertex="1" parent="1">
          <mxGeometry x="248.00000000000003" y="1450" width="80" height="80" as="geometry" />
        </mxCell>
        <mxCell id="ilQH3FXLHyIzs1iSrpnD-71" value="SI" style="text;html=1;align=center;verticalAlign=middle;resizable=0;points=[];autosize=1;strokeColor=none;fillColor=none;" vertex="1" parent="1">
          <mxGeometry x="301.22" y="1537" width="30" height="30" as="geometry" />
        </mxCell>
        <mxCell id="ilQH3FXLHyIzs1iSrpnD-72" value="NO" style="text;html=1;align=center;verticalAlign=middle;resizable=0;points=[];autosize=1;strokeColor=none;fillColor=none;" vertex="1" parent="1">
          <mxGeometry x="213" y="1542" width="40" height="30" as="geometry" />
        </mxCell>
        <mxCell id="ilQH3FXLHyIzs1iSrpnD-74" value="Resetear finJuego a 0" style="rounded=1;whiteSpace=wrap;html=1;" vertex="1" parent="1">
          <mxGeometry x="1.25" y="500" width="160" height="42.5" as="geometry" />
        </mxCell>
        <mxCell id="ilQH3FXLHyIzs1iSrpnD-80" style="edgeStyle=orthogonalEdgeStyle;rounded=0;orthogonalLoop=1;jettySize=auto;html=1;exitX=0.5;exitY=0;exitDx=0;exitDy=0;entryX=0.5;entryY=1;entryDx=0;entryDy=0;fillColor=#60a917;strokeColor=#2D7600;" edge="1" parent="1" source="ilQH3FXLHyIzs1iSrpnD-79" target="3wu-XQMlBxBPhiy1aAq9-29">
          <mxGeometry relative="1" as="geometry" />
        </mxCell>
        <mxCell id="ilQH3FXLHyIzs1iSrpnD-79" value="Limpiar jugadas posibles" style="rounded=1;whiteSpace=wrap;html=1;" vertex="1" parent="1">
          <mxGeometry x="21.25" y="800" width="120" height="60" as="geometry" />
        </mxCell>
        <mxCell id="ilQH3FXLHyIzs1iSrpnD-83" style="edgeStyle=orthogonalEdgeStyle;rounded=0;orthogonalLoop=1;jettySize=auto;html=1;exitX=0;exitY=0.5;exitDx=0;exitDy=0;entryX=0;entryY=0.5;entryDx=0;entryDy=0;fillColor=#60a917;strokeColor=#2D7600;" edge="1" parent="1" source="ilQH3FXLHyIzs1iSrpnD-81" target="3wu-XQMlBxBPhiy1aAq9-6">
          <mxGeometry relative="1" as="geometry">
            <mxPoint x="203.12096551724107" y="206.75" as="targetPoint" />
            <Array as="points">
              <mxPoint x="250" y="140" />
              <mxPoint x="250" y="469" />
            </Array>
          </mxGeometry>
        </mxCell>
        <mxCell id="ilQH3FXLHyIzs1iSrpnD-86" style="edgeStyle=orthogonalEdgeStyle;rounded=0;orthogonalLoop=1;jettySize=auto;html=1;exitX=1;exitY=0.5;exitDx=0;exitDy=0;entryX=0.5;entryY=0;entryDx=0;entryDy=0;fillColor=#f0a30a;strokeColor=#BD7000;" edge="1" parent="1" source="ilQH3FXLHyIzs1iSrpnD-81" target="3wu-XQMlBxBPhiy1aAq9-12">
          <mxGeometry relative="1" as="geometry" />
        </mxCell>
        <mxCell id="ilQH3FXLHyIzs1iSrpnD-81" value="turno juego &amp;lt; 64" style="rhombus;whiteSpace=wrap;html=1;" vertex="1" parent="1">
          <mxGeometry x="305" y="90" width="115" height="100" as="geometry" />
        </mxCell>
        <mxCell id="ilQH3FXLHyIzs1iSrpnD-85" value="SI" style="text;html=1;align=center;verticalAlign=middle;resizable=0;points=[];autosize=1;strokeColor=none;fillColor=none;" vertex="1" parent="1">
          <mxGeometry x="253" y="115" width="30" height="30" as="geometry" />
        </mxCell>
        <mxCell id="ilQH3FXLHyIzs1iSrpnD-87" value="NO" style="text;html=1;align=center;verticalAlign=middle;resizable=0;points=[];autosize=1;strokeColor=none;fillColor=none;" vertex="1" parent="1">
          <mxGeometry x="449.22" y="115" width="40" height="30" as="geometry" />
        </mxCell>
        <mxCell id="ilQH3FXLHyIzs1iSrpnD-91" value="SI" style="text;html=1;align=center;verticalAlign=middle;resizable=0;points=[];autosize=1;strokeColor=none;fillColor=none;" vertex="1" parent="1">
          <mxGeometry x="330" y="1330" width="30" height="30" as="geometry" />
        </mxCell>
        <mxCell id="ilQH3FXLHyIzs1iSrpnD-93" value="SI" style="text;html=1;align=center;verticalAlign=middle;resizable=0;points=[];autosize=1;strokeColor=none;fillColor=none;" vertex="1" parent="1">
          <mxGeometry x="463" y="1372" width="30" height="30" as="geometry" />
        </mxCell>
        <mxCell id="ilQH3FXLHyIzs1iSrpnD-96" value="SI" style="text;html=1;align=center;verticalAlign=middle;resizable=0;points=[];autosize=1;strokeColor=none;fillColor=none;" vertex="1" parent="1">
          <mxGeometry x="565" y="1370" width="30" height="30" as="geometry" />
        </mxCell>
        <mxCell id="ilQH3FXLHyIzs1iSrpnD-98" style="edgeStyle=orthogonalEdgeStyle;rounded=0;orthogonalLoop=1;jettySize=auto;html=1;exitX=0;exitY=0.5;exitDx=0;exitDy=0;entryX=0.75;entryY=0;entryDx=0;entryDy=0;" edge="1" parent="1" source="ilQH3FXLHyIzs1iSrpnD-97" target="y3AjJPNpV2lvp0vPa8tg-163">
          <mxGeometry relative="1" as="geometry" />
        </mxCell>
        <mxCell id="ilQH3FXLHyIzs1iSrpnD-99" style="edgeStyle=orthogonalEdgeStyle;rounded=0;orthogonalLoop=1;jettySize=auto;html=1;exitX=0.5;exitY=0;exitDx=0;exitDy=0;entryX=1;entryY=0.75;entryDx=0;entryDy=0;fillColor=#f0a30a;strokeColor=#BD7000;" edge="1" parent="1" source="ilQH3FXLHyIzs1iSrpnD-97" target="y3AjJPNpV2lvp0vPa8tg-157">
          <mxGeometry relative="1" as="geometry" />
        </mxCell>
        <mxCell id="ilQH3FXLHyIzs1iSrpnD-97" value="quedan coord para probar?" style="rhombus;whiteSpace=wrap;html=1;fillColor=#f0a30a;fontColor=#000000;strokeColor=#BD7000;" vertex="1" parent="1">
          <mxGeometry x="760" y="1000" width="130" height="134.37" as="geometry" />
        </mxCell>
        <mxCell id="ilQH3FXLHyIzs1iSrpnD-100" value="SI" style="text;html=1;align=center;verticalAlign=middle;resizable=0;points=[];autosize=1;strokeColor=none;fillColor=none;" vertex="1" parent="1">
          <mxGeometry x="727.5" y="1044.44" width="30" height="30" as="geometry" />
        </mxCell>
        <mxCell id="ilQH3FXLHyIzs1iSrpnD-101" value="NO" style="text;html=1;align=center;verticalAlign=middle;resizable=0;points=[];autosize=1;strokeColor=none;fillColor=none;" vertex="1" parent="1">
          <mxGeometry x="820" y="947.6300000000001" width="40" height="30" as="geometry" />
        </mxCell>
        <mxCell id="ilQH3FXLHyIzs1iSrpnD-102" value="Jugador" style="swimlane;fontStyle=0;childLayout=stackLayout;horizontal=1;startSize=30;horizontalStack=0;resizeParent=1;resizeParentMax=0;resizeLast=0;collapsible=1;marginBottom=0;whiteSpace=wrap;html=1;" vertex="1" parent="1">
          <mxGeometry x="-600" y="925" width="140" height="180" as="geometry" />
        </mxCell>
        <mxCell id="ilQH3FXLHyIzs1iSrpnD-104" value="int id" style="text;strokeColor=none;fillColor=none;align=left;verticalAlign=middle;spacingLeft=4;spacingRight=4;overflow=hidden;points=[[0,0.5],[1,0.5]];portConstraint=eastwest;rotatable=0;whiteSpace=wrap;html=1;" vertex="1" parent="ilQH3FXLHyIzs1iSrpnD-102">
          <mxGeometry y="30" width="140" height="30" as="geometry" />
        </mxCell>
        <mxCell id="ilQH3FXLHyIzs1iSrpnD-103" value="char nombre[30]" style="text;strokeColor=none;fillColor=none;align=left;verticalAlign=middle;spacingLeft=4;spacingRight=4;overflow=hidden;points=[[0,0.5],[1,0.5]];portConstraint=eastwest;rotatable=0;whiteSpace=wrap;html=1;" vertex="1" parent="ilQH3FXLHyIzs1iSrpnD-102">
          <mxGeometry y="60" width="140" height="30" as="geometry" />
        </mxCell>
        <mxCell id="ilQH3FXLHyIzs1iSrpnD-105" value="char ficha" style="text;strokeColor=none;fillColor=none;align=left;verticalAlign=middle;spacingLeft=4;spacingRight=4;overflow=hidden;points=[[0,0.5],[1,0.5]];portConstraint=eastwest;rotatable=0;whiteSpace=wrap;html=1;" vertex="1" parent="ilQH3FXLHyIzs1iSrpnD-102">
          <mxGeometry y="90" width="140" height="30" as="geometry" />
        </mxCell>
        <mxCell id="ilQH3FXLHyIzs1iSrpnD-106" value="int turno" style="text;strokeColor=none;fillColor=none;align=left;verticalAlign=middle;spacingLeft=4;spacingRight=4;overflow=hidden;points=[[0,0.5],[1,0.5]];portConstraint=eastwest;rotatable=0;whiteSpace=wrap;html=1;" vertex="1" parent="ilQH3FXLHyIzs1iSrpnD-102">
          <mxGeometry y="120" width="140" height="30" as="geometry" />
        </mxCell>
        <mxCell id="ilQH3FXLHyIzs1iSrpnD-107" value="bool ultimo_turno" style="text;strokeColor=none;fillColor=none;align=left;verticalAlign=middle;spacingLeft=4;spacingRight=4;overflow=hidden;points=[[0,0.5],[1,0.5]];portConstraint=eastwest;rotatable=0;whiteSpace=wrap;html=1;" vertex="1" parent="ilQH3FXLHyIzs1iSrpnD-102">
          <mxGeometry y="150" width="140" height="30" as="geometry" />
        </mxCell>
        <mxCell id="ilQH3FXLHyIzs1iSrpnD-109" value="Tablero" style="swimlane;fontStyle=0;childLayout=stackLayout;horizontal=1;startSize=30;horizontalStack=0;resizeParent=1;resizeParentMax=0;resizeLast=0;collapsible=1;marginBottom=0;whiteSpace=wrap;html=1;" vertex="1" parent="1">
          <mxGeometry x="-430" y="924.37" width="140" height="60" as="geometry" />
        </mxCell>
        <mxCell id="ilQH3FXLHyIzs1iSrpnD-110" value="cordenada cord[60]" style="text;strokeColor=none;fillColor=none;align=left;verticalAlign=middle;spacingLeft=4;spacingRight=4;overflow=hidden;points=[[0,0.5],[1,0.5]];portConstraint=eastwest;rotatable=0;whiteSpace=wrap;html=1;" vertex="1" parent="ilQH3FXLHyIzs1iSrpnD-109">
          <mxGeometry y="30" width="140" height="30" as="geometry" />
        </mxCell>
        <mxCell id="ilQH3FXLHyIzs1iSrpnD-116" value="coordenada" style="swimlane;fontStyle=0;childLayout=stackLayout;horizontal=1;startSize=30;horizontalStack=0;resizeParent=1;resizeParentMax=0;resizeLast=0;collapsible=1;marginBottom=0;whiteSpace=wrap;html=1;" vertex="1" parent="1">
          <mxGeometry x="-270" y="924.37" width="140" height="120" as="geometry" />
        </mxCell>
        <mxCell id="ilQH3FXLHyIzs1iSrpnD-117" value="int X" style="text;strokeColor=none;fillColor=none;align=left;verticalAlign=middle;spacingLeft=4;spacingRight=4;overflow=hidden;points=[[0,0.5],[1,0.5]];portConstraint=eastwest;rotatable=0;whiteSpace=wrap;html=1;" vertex="1" parent="ilQH3FXLHyIzs1iSrpnD-116">
          <mxGeometry y="30" width="140" height="30" as="geometry" />
        </mxCell>
        <mxCell id="ilQH3FXLHyIzs1iSrpnD-118" value="int Y" style="text;strokeColor=none;fillColor=none;align=left;verticalAlign=middle;spacingLeft=4;spacingRight=4;overflow=hidden;points=[[0,0.5],[1,0.5]];portConstraint=eastwest;rotatable=0;whiteSpace=wrap;html=1;" vertex="1" parent="ilQH3FXLHyIzs1iSrpnD-116">
          <mxGeometry y="60" width="140" height="30" as="geometry" />
        </mxCell>
        <mxCell id="ilQH3FXLHyIzs1iSrpnD-123" value="char ficha" style="text;strokeColor=none;fillColor=none;align=left;verticalAlign=middle;spacingLeft=4;spacingRight=4;overflow=hidden;points=[[0,0.5],[1,0.5]];portConstraint=eastwest;rotatable=0;whiteSpace=wrap;html=1;" vertex="1" parent="ilQH3FXLHyIzs1iSrpnD-116">
          <mxGeometry y="90" width="140" height="30" as="geometry" />
        </mxCell>
        <mxCell id="ilQH3FXLHyIzs1iSrpnD-126" value="" style="endArrow=classic;html=1;rounded=0;" edge="1" parent="1">
          <mxGeometry width="50" height="50" relative="1" as="geometry">
            <mxPoint x="-732.5" y="790" as="sourcePoint" />
            <mxPoint x="-712.5" y="770" as="targetPoint" />
          </mxGeometry>
        </mxCell>
        <mxCell id="ilQH3FXLHyIzs1iSrpnD-127" value="-1 | +1" style="whiteSpace=wrap;html=1;" vertex="1" parent="1">
          <mxGeometry x="-707.5" y="770" width="40" height="21.13" as="geometry" />
        </mxCell>
        <mxCell id="ilQH3FXLHyIzs1iSrpnD-128" value="" style="endArrow=classic;html=1;rounded=0;" edge="1" parent="1">
          <mxGeometry width="50" height="50" relative="1" as="geometry">
            <mxPoint x="-652" y="770" as="sourcePoint" />
            <mxPoint x="-632" y="790" as="targetPoint" />
            <Array as="points">
              <mxPoint x="-642" y="780" />
            </Array>
          </mxGeometry>
        </mxCell>
        <mxCell id="ilQH3FXLHyIzs1iSrpnD-129" value="+1 | +1" style="whiteSpace=wrap;html=1;" vertex="1" parent="1">
          <mxGeometry x="-627" y="770" width="40" height="21.13" as="geometry" />
        </mxCell>
        <mxCell id="ilQH3FXLHyIzs1iSrpnD-130" value="" style="endArrow=classic;html=1;rounded=0;" edge="1" parent="1">
          <mxGeometry width="50" height="50" relative="1" as="geometry">
            <mxPoint x="-554" y="790" as="sourcePoint" />
            <mxPoint x="-574" y="770" as="targetPoint" />
          </mxGeometry>
        </mxCell>
        <mxCell id="ilQH3FXLHyIzs1iSrpnD-131" value="-1 | -1" style="whiteSpace=wrap;html=1;" vertex="1" parent="1">
          <mxGeometry x="-549" y="770" width="40" height="21.13" as="geometry" />
        </mxCell>
        <mxCell id="ilQH3FXLHyIzs1iSrpnD-132" value="" style="endArrow=none;html=1;rounded=0;startArrow=block;startFill=1;endFill=0;" edge="1" parent="1">
          <mxGeometry width="50" height="50" relative="1" as="geometry">
            <mxPoint x="-498.5" y="788.87" as="sourcePoint" />
            <mxPoint x="-478.5" y="768.87" as="targetPoint" />
          </mxGeometry>
        </mxCell>
        <mxCell id="ilQH3FXLHyIzs1iSrpnD-133" value="+1 | -1" style="whiteSpace=wrap;html=1;" vertex="1" parent="1">
          <mxGeometry x="-473.5" y="768.87" width="40" height="21.13" as="geometry" />
        </mxCell>
        <mxCell id="ilQH3FXLHyIzs1iSrpnD-135" value="" style="endArrow=classic;html=1;rounded=0;" edge="1" parent="1">
          <mxGeometry width="50" height="50" relative="1" as="geometry">
            <mxPoint x="-420" y="780" as="sourcePoint" />
            <mxPoint x="-400" y="780" as="targetPoint" />
          </mxGeometry>
        </mxCell>
        <mxCell id="ilQH3FXLHyIzs1iSrpnD-136" value="1 | +1" style="whiteSpace=wrap;html=1;" vertex="1" parent="1">
          <mxGeometry x="-395" y="768.87" width="40" height="21.13" as="geometry" />
        </mxCell>
        <mxCell id="ilQH3FXLHyIzs1iSrpnD-138" value="" style="endArrow=none;html=1;rounded=0;startArrow=block;startFill=1;endFill=0;" edge="1" parent="1">
          <mxGeometry width="50" height="50" relative="1" as="geometry">
            <mxPoint x="-345" y="780" as="sourcePoint" />
            <mxPoint x="-325" y="780" as="targetPoint" />
          </mxGeometry>
        </mxCell>
        <mxCell id="ilQH3FXLHyIzs1iSrpnD-139" value="1 | -1" style="whiteSpace=wrap;html=1;" vertex="1" parent="1">
          <mxGeometry x="-320" y="768.87" width="40" height="21.13" as="geometry" />
        </mxCell>
        <mxCell id="ilQH3FXLHyIzs1iSrpnD-140" value="" style="endArrow=classic;html=1;rounded=0;" edge="1" parent="1">
          <mxGeometry width="50" height="50" relative="1" as="geometry">
            <mxPoint x="-263" y="789.87" as="sourcePoint" />
            <mxPoint x="-263" y="769.87" as="targetPoint" />
          </mxGeometry>
        </mxCell>
        <mxCell id="ilQH3FXLHyIzs1iSrpnD-141" value="-1 | 1" style="whiteSpace=wrap;html=1;" vertex="1" parent="1">
          <mxGeometry x="-254" y="768.87" width="40" height="21.13" as="geometry" />
        </mxCell>
        <mxCell id="ilQH3FXLHyIzs1iSrpnD-142" value="" style="endArrow=none;html=1;rounded=0;startArrow=block;startFill=1;endFill=0;" edge="1" parent="1">
          <mxGeometry width="50" height="50" relative="1" as="geometry">
            <mxPoint x="-196" y="789.87" as="sourcePoint" />
            <mxPoint x="-196" y="769.87" as="targetPoint" />
          </mxGeometry>
        </mxCell>
        <mxCell id="ilQH3FXLHyIzs1iSrpnD-143" value="+1 | 1" style="whiteSpace=wrap;html=1;" vertex="1" parent="1">
          <mxGeometry x="-187" y="768.87" width="40" height="21.13" as="geometry" />
        </mxCell>
      </root>
    </mxGraphModel>
  </diagram>
</mxfile>
